<?xml version="1.0" encoding="utf-8"?>
<!-- Generator: Adobe Illustrator 15.0.0, SVG Export Plug-In . SVG Version: 6.00 Build 0)  -->
<!DOCTYPE svg PUBLIC "-//W3C//DTD SVG 1.1//EN" "http://www.w3.org/Graphics/SVG/1.1/DTD/svg11.dtd">
<svg version="1.1" id="Livello_1" xmlns="http://www.w3.org/2000/svg" xmlns:xlink="http://www.w3.org/1999/xlink" x="0px" y="0px"
	 width="35px" height="100px" viewBox="0 0 35 100" enable-background="new 0 0 35 100" xml:space="preserve">
<g id="Livello_2" display="none">
	
		<rect x="-4.994" y="7.138" display="inline" fill="#EC1C24" stroke="#EC1C24" stroke-miterlimit="10" width="44.176" height="91.26"/>
</g>
<g id="Livello_1_1_">
	
		<image display="none" overflow="visible" enable-background="new    " width="35" height="74" xlink:href="9F472A70.png"  transform="matrix(0.9999 0 0 0.9999 0.0015 13.0044)">
	</image>
	<g>
		<g>
			<line fill="none" stroke="#EC1C24" stroke-width="1.423" stroke-miterlimit="10" x1="13" y1="37.203" x2="32.463" y2="37.203"/>
			
				<line fill="none" stroke="#EC1C24" stroke-width="1.423" stroke-miterlimit="10" x1="23.221" y1="27.73" x2="33.359" y2="37.869"/>
			
				<line fill="none" stroke="#EC1C24" stroke-width="1.423" stroke-miterlimit="10" x1="23.221" y1="46.963" x2="33.359" y2="36.826"/>
		</g>
		<g>
			<line fill="none" stroke="#262626" stroke-width="1.4232" stroke-miterlimit="10" x1="13" y1="62.507" x2="32.463" y2="62.507"/>
			
				<line fill="none" stroke="#262626" stroke-width="1.4232" stroke-miterlimit="10" x1="23.221" y1="53.036" x2="33.359" y2="63.173"/>
			
				<line fill="none" stroke="#262626" stroke-width="1.4232" stroke-miterlimit="10" x1="23.221" y1="72.27" x2="33.359" y2="62.13"/>
		</g>
		<g>
			<line fill="none" stroke="#0D98C9" stroke-width="1.4232" stroke-miterlimit="10" x1="13" y1="87.814" x2="32.463" y2="87.814"/>
			
				<line fill="none" stroke="#0D98C9" stroke-width="1.4232" stroke-miterlimit="10" x1="23.221" y1="78.342" x2="33.359" y2="88.48"/>
			
				<line fill="none" stroke="#0D98C9" stroke-width="1.4232" stroke-miterlimit="10" x1="23.221" y1="97.574" x2="33.359" y2="87.438"/>
		</g>
		<g>
			<line fill="none" stroke="#FFFFFF" stroke-width="1.4232" stroke-miterlimit="10" x1="13" y1="11.897" x2="32.463" y2="11.897"/>
			
				<line fill="none" stroke="#FFFFFF" stroke-width="1.4232" stroke-miterlimit="10" x1="23.221" y1="2.425" x2="33.359" y2="12.563"/>
			
				<line fill="none" stroke="#FFFFFF" stroke-width="1.4232" stroke-miterlimit="10" x1="23.221" y1="21.658" x2="33.359" y2="11.52"/>
		</g>
	</g>
</g>
</svg>
