<?xml version="1.0" encoding="utf-8"?>
<!-- Generator: Adobe Illustrator 15.0.0, SVG Export Plug-In . SVG Version: 6.00 Build 0)  -->
<!DOCTYPE svg PUBLIC "-//W3C//DTD SVG 1.1//EN" "http://www.w3.org/Graphics/SVG/1.1/DTD/svg11.dtd">
<svg version="1.1" id="Livello_1" xmlns="http://www.w3.org/2000/svg" xmlns:xlink="http://www.w3.org/1999/xlink" x="0px" y="0px"
	 width="413px" height="240px" viewBox="0 0 413 240" enable-background="new 0 0 413 240" xml:space="preserve">
<g>
	<defs>
		<rect id="SVGID_1_" width="413.66" height="239.863"/>
	</defs>
	<clipPath id="SVGID_2_">
		<use xlink:href="#SVGID_1_"  overflow="visible"/>
	</clipPath>
	<polygon display="none" clip-path="url(#SVGID_2_)" fill="#0D55A5" points="162.99,134.049 281.383,252.442 445.379,247.152 
		241.953,43.829 	"/>
	<polygon clip-path="url(#SVGID_2_)" fill="#117E4A" points="-83.68,162.006 -167.141,118.368 12.086,10.083 	"/>
	<polygon clip-path="url(#SVGID_2_)" fill="#FBDB00" points="-133.602,286.464 -83.68,162.006 -167.141,118.368 	"/>
	<polygon clip-path="url(#SVGID_2_)" fill="#F4C016" points="-33.555,181.608 -83.68,162.006 -133.602,286.464 -58.334,275.397 	"/>
	<polygon clip-path="url(#SVGID_2_)" fill="#D6DE23" points="-6.275,115.37 12.086,10.083 55.176,82.319 	"/>
	<polygon clip-path="url(#SVGID_2_)" fill="#39B677" points="63.344,172.185 -15.754,179.877 55.176,82.319 	"/>
	<polygon clip-path="url(#SVGID_2_)" fill="#66C2D2" points="-30.729,271.832 63.344,172.185 40.453,274.871 	"/>
	<polygon clip-path="url(#SVGID_2_)" fill="#2D8BCB" points="133.854,227.246 63.344,172.185 40.453,274.947 	"/>
	<polygon clip-path="url(#SVGID_2_)" fill="#8BC53F" points="-6.275,115.37 -27.971,198.189 55.176,82.319 	"/>
	<polygon clip-path="url(#SVGID_2_)" fill="#6CC39C" points="-58.334,275.397 -33.555,181.608 63.344,172.185 -30.729,271.832 	"/>
	<polygon clip-path="url(#SVGID_2_)" fill="#8BC53F" points="-83.68,162.006 12.086,10.083 -6.275,115.37 	"/>
	<polygon clip-path="url(#SVGID_2_)" fill="#FAAF40" points="-33.555,181.608 -83.68,162.006 -6.275,115.37 	"/>
	<polygon clip-path="url(#SVGID_2_)" fill="#4C3F98" points="55.014,82.1 133.854,227.246 172.371,185.727 	"/>
	<polygon clip-path="url(#SVGID_2_)" fill="#80499B" points="139.801,86.711 172.371,185.727 55.014,82.1 	"/>
	<polygon clip-path="url(#SVGID_2_)" fill="#A0216C" points="228.318,24.367 172.371,185.727 139.801,86.711 	"/>
	<polygon clip-path="url(#SVGID_2_)" fill="#C31F8D" points="243.176,172.433 172.371,185.727 228.27,24.509 272.943,106.158 	"/>
	<polygon clip-path="url(#SVGID_2_)" fill="#D2509C" points="249.227,241.04 243.176,172.433 133.854,227.246 	"/>
	<polygon clip-path="url(#SVGID_2_)" fill="#EE3F23" points="371.962,164.85 249.115,241.892 243.176,172.433 	"/>
	<polygon clip-path="url(#SVGID_2_)" fill="#EF5323" points="421.613,88.404 272.943,106.158 370.949,165.327 	"/>
	<polygon clip-path="url(#SVGID_2_)" fill="#EE3B24" points="428.701,214.632 370.949,165.327 421.613,88.404 	"/>
	<polygon clip-path="url(#SVGID_2_)" fill="#C42126" points="304.885,246.59 370.949,165.327 373.268,248.51 	"/>
	<polygon clip-path="url(#SVGID_2_)" fill="#F5911E" points="421.613,88.404 315.336,63.495 311.547,9.187 	"/>
	<polygon clip-path="url(#SVGID_2_)" fill="#FCDA00" points="424.463,-13.176 311.547,9.187 421.613,88.404 	"/>
	<polygon clip-path="url(#SVGID_2_)" fill="#FAF07A" points="315.336,63.495 272.943,106.158 421.613,88.404 	"/>
	<polygon clip-path="url(#SVGID_2_)" fill="#B657A0" points="243.176,172.433 272.943,106.158 370.949,165.327 	"/>
	<polygon clip-path="url(#SVGID_2_)" fill="#CD1E4A" points="133.854,227.246 172.371,185.727 243.652,172.295 	"/>
	<polygon clip-path="url(#SVGID_2_)" fill="#EC1C24" points="249.227,241.04 370.949,165.327 304.885,246.59 	"/>
	<polygon clip-path="url(#SVGID_2_)" fill="#EC1C24" points="372.553,248.375 370.949,165.327 428.701,214.632 427.707,250.038 	"/>
	<polygon clip-path="url(#SVGID_2_)" fill="#215AA8" points="95.645,246.76 133.854,227.246 255.76,241.691 	"/>
	<polygon clip-path="url(#SVGID_2_)" fill="#4A2E83" points="55.176,82.319 63.344,172.185 133.98,227.447 	"/>
	<polygon clip-path="url(#SVGID_2_)" fill="#7880A8" points="55.176,82.319 113.533,-22.757 139.801,86.711 	"/>
	<polygon clip-path="url(#SVGID_2_)" fill="#8EA33B" points="12.086,10.083 117.561,-26.209 55.176,82.319 	"/>
	<polygon clip-path="url(#SVGID_2_)" fill="#61A85D" points="-18.212,-45.194 12.086,10.083 -27.992,36.171 	"/>
	<polygon clip-path="url(#SVGID_2_)" fill="#9ACA42" points="145.039,-33.14 12.086,10.083 -18.212,-45.194 	"/>
	<polygon clip-path="url(#SVGID_2_)" fill="#B657A0" points="228.27,24.509 112.257,-27.475 139.801,86.711 	"/>
	<polygon clip-path="url(#SVGID_2_)" fill="#DB5958" points="311.547,9.187 228.27,24.509 272.943,106.158 315.336,63.495 	"/>
	<polygon clip-path="url(#SVGID_2_)" fill="#EE7465" points="246.507,-51.725 228.27,24.509 311.547,9.187 	"/>
	<polygon clip-path="url(#SVGID_2_)" fill="#FFE682" points="427.007,-12.475 311.547,9.187 257.507,-41.725 	"/>
	<polygon clip-path="url(#SVGID_2_)" fill="#9C5D9F" points="228.27,24.509 104.007,-29.225 258.507,-58.725 	"/>
</g>
</svg>
