<?xml version="1.0" encoding="utf-8"?>
<!-- Generator: Adobe Illustrator 15.0.0, SVG Export Plug-In . SVG Version: 6.00 Build 0)  -->
<!DOCTYPE svg PUBLIC "-//W3C//DTD SVG 1.1//EN" "http://www.w3.org/Graphics/SVG/1.1/DTD/svg11.dtd">
<svg version="1.1" id="Livello_1" xmlns="http://www.w3.org/2000/svg" xmlns:xlink="http://www.w3.org/1999/xlink" x="0px" y="0px"
	 width="40px" height="100px" viewBox="0 0 40 100" enable-background="new 0 0 40 100" xml:space="preserve">
<rect x="-2.5" y="-1.5" display="none" stroke="#FFFFFF" stroke-miterlimit="10" width="45" height="114"/>
<g>
	<g>
		<line fill="none" stroke="#FFFFFF" stroke-width="2" stroke-miterlimit="10" x1="1.822" y1="2.62" x2="16.177" y2="16.974"/>
		<line fill="none" stroke="#FFFFFF" stroke-width="2" stroke-miterlimit="10" x1="16.177" y1="2.62" x2="1.823" y2="16.974"/>
	</g>
	<g>
		<line fill="#333333" stroke="#0D98C9" stroke-width="2" stroke-miterlimit="10" x1="23.822" y1="2.62" x2="38.177" y2="16.974"/>
		<line fill="#333333" stroke="#0D98C9" stroke-width="2" stroke-miterlimit="10" x1="38.178" y1="2.62" x2="23.823" y2="16.974"/>
	</g>
	<g>
		<line fill="#EC1C24" stroke="#D10202" stroke-width="2" stroke-miterlimit="10" x1="1.822" y1="23.62" x2="16.177" y2="37.974"/>
		<line fill="#EC1C24" stroke="#D10202" stroke-width="2" stroke-miterlimit="10" x1="16.177" y1="23.62" x2="1.823" y2="37.974"/>
	</g>
	<g>
		<line fill="#333333" stroke="#262626" stroke-width="2" stroke-miterlimit="10" x1="23.822" y1="23.62" x2="38.177" y2="37.974"/>
		<line fill="#333333" stroke="#262626" stroke-width="2" stroke-miterlimit="10" x1="38.178" y1="23.62" x2="23.823" y2="37.974"/>
	</g>
</g>
<g>
	<line fill="#333333" stroke="#262626" stroke-width="2" stroke-miterlimit="10" x1="3" y1="55" x2="15" y2="55"/>
	<line fill="#333333" stroke="#262626" stroke-width="2" stroke-miterlimit="10" x1="9" y1="61" x2="9" y2="49"/>
</g>
<g>
	<line fill="#EC1C24" stroke="#D10202" stroke-width="2" stroke-miterlimit="10" x1="25" y1="55" x2="37" y2="55"/>
	<line fill="#EC1C24" stroke="#D10202" stroke-width="2" stroke-miterlimit="10" x1="31" y1="61" x2="31" y2="49"/>
</g>
<g>
	<line fill="#EC1C24" stroke="#FFFFFF" stroke-width="2" stroke-miterlimit="10" x1="3" y1="76" x2="15" y2="76"/>
	<line fill="#EC1C24" stroke="#FFFFFF" stroke-width="2" stroke-miterlimit="10" x1="9" y1="82" x2="9" y2="70"/>
</g>
<g>
	<line fill="#EC1C24" stroke="#D10202" stroke-width="2" stroke-miterlimit="10" x1="25" y1="76" x2="37" y2="76"/>
	<line fill="#EC1C24" stroke="#D10202" stroke-width="2" stroke-miterlimit="10" x1="31" y1="82" x2="31" y2="70"/>
</g>
</svg>
