<?xml version="1.0" encoding="utf-8"?>
<!-- Generator: Adobe Illustrator 15.0.0, SVG Export Plug-In . SVG Version: 6.00 Build 0)  -->
<!DOCTYPE svg PUBLIC "-//W3C//DTD SVG 1.1//EN" "http://www.w3.org/Graphics/SVG/1.1/DTD/svg11.dtd">
<svg version="1.1" id="Livello_1" xmlns="http://www.w3.org/2000/svg" xmlns:xlink="http://www.w3.org/1999/xlink" x="0px" y="0px"
	 width="140px" height="140px" viewBox="0 0 140 140" enable-background="new 0 0 140 140" xml:space="preserve">
<g display="none">
	<path display="inline" opacity="0.5" fill="#FFFFFF" d="M138.045,21.96v116.08H21.955c-11,0-20-9-20-20V21.96c0-11,9-20,20-20
		h96.09C129.045,1.96,138.045,10.96,138.045,21.96z"/>
	<g display="inline">
		<g>
			<rect x="39.46" y="20.407" fill-rule="evenodd" clip-rule="evenodd" fill="#FFFFFF" width="73.668" height="91.687"/>
			<g>
				
					<rect x="45.561" y="27.371" transform="matrix(-1 -0.0079 0.0079 -1 152.9933 57.2365)" fill-rule="evenodd" clip-rule="evenodd" fill="#CCCCCC" width="62.098" height="1.893"/>
				
					<rect x="45.535" y="31.177" transform="matrix(-1 -0.0079 0.0079 -1 152.912 64.8497)" fill-rule="evenodd" clip-rule="evenodd" fill="#CCCCCC" width="62.098" height="1.893"/>
				
					<rect x="45.512" y="34.983" transform="matrix(-1 -0.0079 0.0079 -1 152.8337 72.4615)" fill-rule="evenodd" clip-rule="evenodd" fill="#CCCCCC" width="62.096" height="1.894"/>
				
					<rect x="45.484" y="38.789" transform="matrix(-1 -0.0078 0.0078 -1 152.7522 80.071)" fill-rule="evenodd" clip-rule="evenodd" fill="#CCCCCC" width="62.098" height="1.895"/>
				
					<rect x="45.457" y="42.595" transform="matrix(-1 -0.0079 0.0079 -1 152.667 87.6842)" fill-rule="evenodd" clip-rule="evenodd" fill="#CCCCCC" width="62.098" height="1.895"/>
				
					<rect x="45.432" y="46.401" transform="matrix(-1 -0.0079 0.0079 -1 152.5863 95.2972)" fill-rule="evenodd" clip-rule="evenodd" fill="#CCCCCC" width="62.098" height="1.895"/>
				
					<rect x="45.406" y="50.208" transform="matrix(-1 -0.0079 0.0079 -1 152.5056 102.9082)" fill-rule="evenodd" clip-rule="evenodd" fill="#CCCCCC" width="62.098" height="1.893"/>
				
					<rect x="45.381" y="54.014" transform="matrix(-1 -0.0079 0.0079 -1 152.424 110.5223)" fill-rule="evenodd" clip-rule="evenodd" fill="#CCCCCC" width="62.098" height="1.894"/>
				
					<rect x="45.457" y="57.819" transform="matrix(-1 -0.0079 0.0079 -1 152.5473 118.133)" fill-rule="evenodd" clip-rule="evenodd" fill="#CCCCCC" width="62.098" height="1.895"/>
				
					<rect x="45.432" y="61.626" transform="matrix(-1 -0.0079 0.0079 -1 152.4666 125.7459)" fill-rule="evenodd" clip-rule="evenodd" fill="#CCCCCC" width="62.098" height="1.895"/>
				
					<rect x="45.406" y="65.434" transform="matrix(-1 -0.0079 0.0079 -1 152.3858 133.3589)" fill-rule="evenodd" clip-rule="evenodd" fill="#CCCCCC" width="62.098" height="1.893"/>
				
					<rect x="45.381" y="69.239" transform="matrix(-1 -0.0079 0.0079 -1 152.304 140.9711)" fill-rule="evenodd" clip-rule="evenodd" fill="#CCCCCC" width="62.098" height="1.894"/>
				
					<rect x="45.356" y="73.044" transform="matrix(-1 -0.0078 0.0078 -1 121.1784 148.4589)" fill-rule="evenodd" clip-rule="evenodd" fill="#CCCCCC" width="31.048" height="1.896"/>
				
					<rect x="45.109" y="86.427" transform="matrix(-1 -0.0078 0.0078 -1 118.0293 175.2112)" fill-rule="evenodd" clip-rule="evenodd" fill="#CCCCCC" width="28.499" height="1.894"/>
				
					<rect x="45.084" y="89.653" transform="matrix(-1 -0.0078 0.0078 -1 117.9564 181.6629)" fill-rule="evenodd" clip-rule="evenodd" fill="#CCCCCC" width="28.499" height="1.896"/>
				
					<rect x="45.057" y="92.882" transform="matrix(-1 -0.0078 0.0078 -1 117.8752 188.1207)" fill-rule="evenodd" clip-rule="evenodd" fill="#CCCCCC" width="28.499" height="1.894"/>
				
					<rect x="44.981" y="96.109" transform="matrix(-1 -0.0079 0.0079 -1 117.6942 194.5761)" fill-rule="evenodd" clip-rule="evenodd" fill="#CCCCCC" width="28.499" height="1.894"/>
				
					<rect x="44.957" y="99.337" transform="matrix(-1 -0.0079 0.0079 -1 117.6179 201.0309)" fill-rule="evenodd" clip-rule="evenodd" fill="#CCCCCC" width="28.497" height="1.894"/>
				
					<rect x="44.928" y="102.564" transform="matrix(-1 -0.0079 0.0079 -1 103.2901 207.4285)" fill-rule="evenodd" clip-rule="evenodd" fill="#CCCCCC" width="14.25" height="1.894"/>
				
					<rect x="78.707" y="86.691" transform="matrix(-1 -0.0079 0.0079 -1 185.2185 176.0063)" fill-rule="evenodd" clip-rule="evenodd" fill="#CCCCCC" width="28.499" height="1.894"/>
				
					<rect x="78.679" y="89.924" transform="matrix(-1 -0.0079 0.0079 -1 185.1404 182.4698)" fill-rule="evenodd" clip-rule="evenodd" fill="#CCCCCC" width="28.501" height="1.893"/>
				
					<rect x="78.655" y="93.155" transform="matrix(-1 -0.0078 0.0078 -1 185.0693 188.9302)" fill-rule="evenodd" clip-rule="evenodd" fill="#CCCCCC" width="28.501" height="1.895"/>
				
					<rect x="78.579" y="96.387" transform="matrix(-1 -0.0079 0.0079 -1 184.8863 195.3956)" fill-rule="evenodd" clip-rule="evenodd" fill="#CCCCCC" width="28.499" height="1.894"/>
				
					<rect x="78.552" y="99.619" transform="matrix(-1 -0.0079 0.0079 -1 184.808 201.8601)" fill-rule="evenodd" clip-rule="evenodd" fill="#CCCCCC" width="28.499" height="1.894"/>
				
					<rect x="78.526" y="102.851" transform="matrix(-1 -0.0079 0.0079 -1 176.2869 208.2941)" fill-rule="evenodd" clip-rule="evenodd" fill="#CCCCCC" width="20.061" height="1.893"/>
			</g>
		</g>
		<g>
			<g opacity="0.3">
				<rect x="26.981" y="30.238" fill-rule="evenodd" clip-rule="evenodd" fill="#231F20" width="73.668" height="91.687"/>
				
					<rect x="33.082" y="60.733" transform="matrix(-1 -0.0079 0.0079 -1 127.7738 123.8618)" fill-rule="evenodd" clip-rule="evenodd" fill="#231F20" width="62.098" height="1.893"/>
				
					<rect x="33.057" y="64.047" transform="matrix(-1 -0.0079 0.0079 -1 127.6958 130.4904)" fill-rule="evenodd" clip-rule="evenodd" fill="#231F20" width="62.098" height="1.893"/>
				
					<rect x="33.033" y="67.36" transform="matrix(-1 -0.0079 0.0079 -1 127.6219 137.1161)" fill-rule="evenodd" clip-rule="evenodd" fill="#231F20" width="62.096" height="1.894"/>
				
					<rect x="33.006" y="70.673" transform="matrix(-1 -0.0078 0.0078 -1 127.5454 143.7417)" fill-rule="evenodd" clip-rule="evenodd" fill="#231F20" width="62.098" height="1.895"/>
				
					<rect x="32.979" y="73.987" transform="matrix(-1 -0.0079 0.0079 -1 127.4635 150.3703)" fill-rule="evenodd" clip-rule="evenodd" fill="#231F20" width="62.098" height="1.895"/>
				
					<rect x="32.953" y="77.3" transform="matrix(-1 -0.0079 0.0079 -1 127.3867 156.995)" fill-rule="evenodd" clip-rule="evenodd" fill="#231F20" width="62.098" height="1.895"/>
				
					<rect x="32.928" y="80.614" transform="matrix(-1 -0.0079 0.0079 -1 127.3098 163.6216)" fill-rule="evenodd" clip-rule="evenodd" fill="#231F20" width="62.098" height="1.893"/>
				
					<rect x="32.902" y="83.927" transform="matrix(-1 -0.0079 0.0079 -1 127.2316 170.2493)" fill-rule="evenodd" clip-rule="evenodd" fill="#231F20" width="62.098" height="1.894"/>
				
					<rect x="32.877" y="87.118" transform="matrix(-1 -0.0078 0.0078 -1 96.1115 176.5072)" fill-rule="evenodd" clip-rule="evenodd" fill="#231F20" width="31.048" height="1.896"/>
				<path fill-rule="evenodd" clip-rule="evenodd" fill="#231F20" d="M87.849,38.583c4.445,0.034,8.025,3.668,7.988,8.114
					c-0.031,4.449-3.668,8.024-8.115,7.989s-8.023-3.668-7.988-8.114C79.767,42.124,83.401,38.548,87.849,38.583z"/>
				<path fill-rule="evenodd" clip-rule="evenodd" fill="#231F20" d="M83.3,53.323c-1.148-0.773-2.09-1.833-2.713-3.077l7.197-3.611
					L83.3,53.323z"/>
				<path fill-rule="evenodd" clip-rule="evenodd" fill="#231F20" d="M80.587,50.246c-0.557-1.104-0.865-2.354-0.854-3.674
					c0.018-2.576,1.246-4.859,3.137-6.317l4.914,6.38L80.587,50.246z"/>
				<path fill-rule="evenodd" clip-rule="evenodd" fill="#231F20" d="M82.87,40.255c1.377-1.062,3.104-1.688,4.979-1.672
					l-0.064,8.052L82.87,40.255z"/>
				<path fill-rule="evenodd" clip-rule="evenodd" fill="#231F20" d="M87.849,38.583l-0.064,8.052l5.785-5.604
					C92.12,39.536,90.095,38.6,87.849,38.583z"/>
				
					<rect x="33.664" y="55.774" transform="matrix(-1 -0.0079 0.0079 -1 103.8347 112.903)" fill-rule="evenodd" clip-rule="evenodd" fill="#231F20" width="36.95" height="0.945"/>
				
					<rect x="33.747" y="35.869" transform="matrix(-1 -0.0079 0.0079 -1 73.6987 91.8149)" fill-rule="evenodd" clip-rule="evenodd" fill="#231F20" width="6.567" height="19.786"/>
				
					<rect x="41.31" y="43.388" transform="matrix(-1 -0.0077 0.0077 -1 88.8071 99.4467)" fill-rule="evenodd" clip-rule="evenodd" fill="#231F20" width="6.571" height="12.327"/>
				
					<rect x="48.891" y="47.623" transform="matrix(-1 -0.008 0.008 -1 103.9348 103.8147)" fill-rule="evenodd" clip-rule="evenodd" fill="#231F20" width="6.569" height="8.152"/>
				
					<rect x="56.501" y="43.861" transform="matrix(-1 -0.0079 0.0079 -1 119.1757 100.1648)" fill-rule="evenodd" clip-rule="evenodd" fill="#231F20" width="6.569" height="11.974"/>
				
					<rect x="64.084" y="47.332" transform="matrix(-1 -0.0077 0.0077 -1 134.3332 103.746)" fill-rule="evenodd" clip-rule="evenodd" fill="#231F20" width="6.567" height="8.563"/>
				
					<rect x="80.167" y="56.008" transform="matrix(-1 -0.008 0.008 -1 163.1988 113.6107)" fill-rule="evenodd" clip-rule="evenodd" fill="#231F20" width="3.317" height="0.945"/>
				
					<rect x="85.016" y="56.072" transform="matrix(-1 -0.0079 0.0079 -1 179.4315 113.8014)" fill-rule="evenodd" clip-rule="evenodd" fill="#231F20" width="9.85" height="0.945"/>
				
					<rect x="32.63" y="96.258" transform="matrix(-1 -0.0078 0.0078 -1 92.9955 194.775)" fill-rule="evenodd" clip-rule="evenodd" fill="#231F20" width="28.499" height="1.894"/>
				
					<rect x="32.605" y="99.484" transform="matrix(-1 -0.0078 0.0078 -1 92.9229 201.2273)" fill-rule="evenodd" clip-rule="evenodd" fill="#231F20" width="28.499" height="1.896"/>
				
					<rect x="32.579" y="102.713" transform="matrix(-1 -0.0078 0.0078 -1 92.8414 207.6846)" fill-rule="evenodd" clip-rule="evenodd" fill="#231F20" width="28.499" height="1.894"/>
				
					<rect x="32.502" y="105.94" transform="matrix(-1 -0.0079 0.0079 -1 92.66 214.1396)" fill-rule="evenodd" clip-rule="evenodd" fill="#231F20" width="28.499" height="1.894"/>
				
					<rect x="32.478" y="109.168" transform="matrix(-1 -0.0079 0.0079 -1 92.5838 220.5944)" fill-rule="evenodd" clip-rule="evenodd" fill="#231F20" width="28.497" height="1.894"/>
				
					<rect x="32.45" y="112.395" transform="matrix(-1 -0.0079 0.0079 -1 78.2559 226.992)" fill-rule="evenodd" clip-rule="evenodd" fill="#231F20" width="14.25" height="1.894"/>
				
					<rect x="66.228" y="96.522" transform="matrix(-1 -0.0079 0.0079 -1 160.1844 195.5697)" fill-rule="evenodd" clip-rule="evenodd" fill="#231F20" width="28.499" height="1.894"/>
				
					<rect x="66.201" y="99.755" transform="matrix(-1 -0.0079 0.0079 -1 160.1062 202.0332)" fill-rule="evenodd" clip-rule="evenodd" fill="#231F20" width="28.501" height="1.893"/>
				
					<rect x="66.176" y="102.986" transform="matrix(-1 -0.0078 0.0078 -1 160.0355 208.4941)" fill-rule="evenodd" clip-rule="evenodd" fill="#231F20" width="28.501" height="1.895"/>
				
					<rect x="66.1" y="106.218" transform="matrix(-1 -0.0079 0.0079 -1 159.8521 214.959)" fill-rule="evenodd" clip-rule="evenodd" fill="#231F20" width="28.499" height="1.894"/>
				
					<rect x="66.074" y="109.45" transform="matrix(-1 -0.0079 0.0079 -1 159.7739 221.4236)" fill-rule="evenodd" clip-rule="evenodd" fill="#231F20" width="28.499" height="1.894"/>
				
					<rect x="66.048" y="112.682" transform="matrix(-1 -0.0079 0.0079 -1 151.2523 227.8569)" fill-rule="evenodd" clip-rule="evenodd" fill="#231F20" width="20.061" height="1.893"/>
			</g>
			<g>
				<g>
					<rect x="25.981" y="29.238" fill-rule="evenodd" clip-rule="evenodd" fill="#FFFFFF" width="73.668" height="91.687"/>
					<g>
						
							<rect x="32.082" y="59.733" transform="matrix(-1 -0.0079 0.0079 -1 125.7817 121.8539)" fill-rule="evenodd" clip-rule="evenodd" fill="#CCCCCC" width="62.098" height="1.893"/>
						
							<rect x="32.057" y="63.047" transform="matrix(-1 -0.0079 0.0079 -1 125.7038 128.4825)" fill-rule="evenodd" clip-rule="evenodd" fill="#CCCCCC" width="62.098" height="1.893"/>
						
							<rect x="32.033" y="66.36" transform="matrix(-1 -0.0079 0.0079 -1 125.6298 135.1082)" fill-rule="evenodd" clip-rule="evenodd" fill="#CCCCCC" width="62.096" height="1.894"/>
						
							<rect x="32.006" y="69.673" transform="matrix(-1 -0.0078 0.0078 -1 125.5532 141.7339)" fill-rule="evenodd" clip-rule="evenodd" fill="#CCCCCC" width="62.098" height="1.895"/>
						
							<rect x="31.979" y="72.987" transform="matrix(-1 -0.0079 0.0079 -1 125.4714 148.3624)" fill-rule="evenodd" clip-rule="evenodd" fill="#CCCCCC" width="62.098" height="1.895"/>
						
							<rect x="31.953" y="76.3" transform="matrix(-1 -0.0079 0.0079 -1 125.3946 154.9872)" fill-rule="evenodd" clip-rule="evenodd" fill="#CCCCCC" width="62.098" height="1.895"/>
						
							<rect x="31.928" y="79.614" transform="matrix(-1 -0.0079 0.0079 -1 125.3177 161.6138)" fill-rule="evenodd" clip-rule="evenodd" fill="#CCCCCC" width="62.098" height="1.893"/>
						
							<rect x="31.902" y="82.927" transform="matrix(-1 -0.0079 0.0079 -1 125.2396 168.2414)" fill-rule="evenodd" clip-rule="evenodd" fill="#CCCCCC" width="62.098" height="1.894"/>
						
							<rect x="31.877" y="86.118" transform="matrix(-1 -0.0078 0.0078 -1 94.1194 174.4994)" fill-rule="evenodd" clip-rule="evenodd" fill="#CCCCCC" width="31.048" height="1.896"/>
						<g>
							<path fill-rule="evenodd" clip-rule="evenodd" fill="#4D8EB4" d="M86.849,37.583c4.445,0.034,8.025,3.668,7.988,8.114
								c-0.031,4.449-3.668,8.024-8.115,7.989s-8.023-3.668-7.988-8.114C78.767,41.124,82.401,37.548,86.849,37.583z"/>
							<path fill-rule="evenodd" clip-rule="evenodd" fill="#9ACAE5" d="M82.3,52.323c-1.148-0.773-2.09-1.833-2.713-3.077
								l7.197-3.611L82.3,52.323z"/>
							<path fill-rule="evenodd" clip-rule="evenodd" fill="#88BBDA" d="M79.587,49.246c-0.557-1.104-0.865-2.354-0.854-3.674
								c0.018-2.576,1.246-4.859,3.137-6.317l4.914,6.38L79.587,49.246z"/>
							<path fill-rule="evenodd" clip-rule="evenodd" fill="#73ACCC" d="M81.87,39.255c1.377-1.062,3.104-1.688,4.979-1.672
								l-0.064,8.052L81.87,39.255z"/>
							<path fill-rule="evenodd" clip-rule="evenodd" fill="#609DC1" d="M86.849,37.583l-0.064,8.052l5.785-5.604
								C91.12,38.536,89.095,37.6,86.849,37.583z"/>
						</g>
						<g>
							
								<rect x="32.664" y="54.774" transform="matrix(-1 -0.0079 0.0079 -1 101.8426 110.8952)" fill-rule="evenodd" clip-rule="evenodd" fill="#CCCCCC" width="36.95" height="0.945"/>
							
								<rect x="32.747" y="34.869" transform="matrix(-1 -0.0079 0.0079 -1 71.7066 89.807)" fill-rule="evenodd" clip-rule="evenodd" fill="#4D8EB4" width="6.567" height="19.786"/>
							
								<rect x="40.31" y="42.388" transform="matrix(-1 -0.0077 0.0077 -1 86.8149 97.439)" fill-rule="evenodd" clip-rule="evenodd" fill="#609DC1" width="6.571" height="12.327"/>
							
								<rect x="47.891" y="46.623" transform="matrix(-1 -0.008 0.008 -1 101.9429 101.8067)" fill-rule="evenodd" clip-rule="evenodd" fill="#73ACCC" width="6.569" height="8.152"/>
							
								<rect x="55.501" y="42.861" transform="matrix(-1 -0.0079 0.0079 -1 117.1836 98.157)" fill-rule="evenodd" clip-rule="evenodd" fill="#88BBDA" width="6.569" height="11.974"/>
							
								<rect x="63.084" y="46.332" transform="matrix(-1 -0.0077 0.0077 -1 132.341 101.7383)" fill-rule="evenodd" clip-rule="evenodd" fill="#9ACAE5" width="6.567" height="8.563"/>
							
								<rect x="79.167" y="55.008" transform="matrix(-1 -0.008 0.008 -1 161.2067 111.6028)" fill-rule="evenodd" clip-rule="evenodd" fill="#CCCCCC" width="3.317" height="0.945"/>
							
								<rect x="84.016" y="55.072" transform="matrix(-1 -0.0079 0.0079 -1 177.4395 111.7935)" fill-rule="evenodd" clip-rule="evenodd" fill="#CCCCCC" width="9.85" height="0.945"/>
						</g>
						
							<rect x="31.63" y="95.258" transform="matrix(-1 -0.0078 0.0078 -1 91.0034 192.7672)" fill-rule="evenodd" clip-rule="evenodd" fill="#CCCCCC" width="28.499" height="1.894"/>
						
							<rect x="31.605" y="98.484" transform="matrix(-1 -0.0078 0.0078 -1 90.9307 199.2195)" fill-rule="evenodd" clip-rule="evenodd" fill="#CCCCCC" width="28.499" height="1.896"/>
						
							<rect x="31.579" y="101.713" transform="matrix(-1 -0.0078 0.0078 -1 90.8493 205.6768)" fill-rule="evenodd" clip-rule="evenodd" fill="#CCCCCC" width="28.499" height="1.894"/>
						
							<rect x="31.502" y="104.94" transform="matrix(-1 -0.0079 0.0079 -1 90.668 212.1317)" fill-rule="evenodd" clip-rule="evenodd" fill="#CCCCCC" width="28.499" height="1.894"/>
						
							<rect x="31.478" y="108.168" transform="matrix(-1 -0.0079 0.0079 -1 90.5917 218.5865)" fill-rule="evenodd" clip-rule="evenodd" fill="#CCCCCC" width="28.497" height="1.894"/>
						
							<rect x="31.45" y="111.395" transform="matrix(-1 -0.0079 0.0079 -1 76.2639 224.9841)" fill-rule="evenodd" clip-rule="evenodd" fill="#CCCCCC" width="14.25" height="1.894"/>
						
							<rect x="65.228" y="95.522" transform="matrix(-1 -0.0079 0.0079 -1 158.1923 193.5619)" fill-rule="evenodd" clip-rule="evenodd" fill="#CCCCCC" width="28.499" height="1.894"/>
						
							<rect x="65.201" y="98.755" transform="matrix(-1 -0.0079 0.0079 -1 158.1142 200.0254)" fill-rule="evenodd" clip-rule="evenodd" fill="#CCCCCC" width="28.501" height="1.893"/>
						
							<rect x="65.176" y="101.986" transform="matrix(-1 -0.0078 0.0078 -1 158.0434 206.4863)" fill-rule="evenodd" clip-rule="evenodd" fill="#CCCCCC" width="28.501" height="1.895"/>
						
							<rect x="65.1" y="105.218" transform="matrix(-1 -0.0079 0.0079 -1 157.86 212.9512)" fill-rule="evenodd" clip-rule="evenodd" fill="#CCCCCC" width="28.499" height="1.894"/>
						
							<rect x="65.074" y="108.45" transform="matrix(-1 -0.0079 0.0079 -1 157.7818 219.4157)" fill-rule="evenodd" clip-rule="evenodd" fill="#CCCCCC" width="28.499" height="1.894"/>
						
							<rect x="65.048" y="111.682" transform="matrix(-1 -0.0079 0.0079 -1 149.2602 225.849)" fill-rule="evenodd" clip-rule="evenodd" fill="#CCCCCC" width="20.061" height="1.893"/>
					</g>
				</g>
			</g>
		</g>
		<g>
			<g opacity="0.28">
				<g>
					<defs>
						<circle id="SVGID_1_" cx="104.514" cy="93.977" r="23.322"/>
					</defs>
					<clipPath id="SVGID_2_">
						<use xlink:href="#SVGID_1_"  overflow="visible"/>
					</clipPath>
				</g>
				<circle fill="#231F20" cx="104.514" cy="93.977" r="23.322"/>
				<g>
					<defs>
						<circle id="SVGID_3_" cx="104.514" cy="93.977" r="23.322"/>
					</defs>
					<clipPath id="SVGID_4_">
						<use xlink:href="#SVGID_3_"  overflow="visible"/>
					</clipPath>
					
						<circle clip-path="url(#SVGID_4_)" fill="none" stroke="#231F20" stroke-width="6" stroke-miterlimit="10" cx="106.575" cy="96.038" r="23.321"/>
				</g>
				<path fill="#231F20" d="M104.512,68.837c-13.861,0-25.139,11.277-25.139,25.14c0,13.863,11.277,25.142,25.139,25.142
					c13.865,0,25.143-11.278,25.143-25.142C129.654,80.114,118.377,68.837,104.512,68.837z M104.512,115.479
					c-11.855,0-21.502-9.646-21.502-21.503c0-11.855,9.646-21.502,21.502-21.502c11.857,0,21.504,9.646,21.504,21.502
					C126.016,105.834,116.369,115.479,104.512,115.479z"/>
				
					<line fill="none" stroke="#231F20" stroke-width="2" stroke-miterlimit="10" x1="104.514" y1="74.341" x2="104.514" y2="77.522"/>
				
					<line fill="none" stroke="#231F20" stroke-width="2" stroke-miterlimit="10" x1="104.514" y1="111.108" x2="104.514" y2="114.291"/>
				
					<line fill="none" stroke="#231F20" stroke-width="2" stroke-miterlimit="10" x1="124.488" y1="94.315" x2="121.307" y2="94.315"/>
				<line fill="none" stroke="#231F20" stroke-width="2" stroke-miterlimit="10" x1="87.721" y1="94.315" x2="84.539" y2="94.315"/>
				<line fill="none" stroke="#231F20" stroke-miterlimit="10" x1="121.813" y1="84.328" x2="119.057" y2="85.92"/>
				<line fill="none" stroke="#231F20" stroke-miterlimit="10" x1="89.969" y1="102.713" x2="87.215" y2="104.304"/>
				<line fill="none" stroke="#231F20" stroke-miterlimit="10" x1="114.5" y1="77.018" x2="112.91" y2="79.772"/>
				<line fill="none" stroke="#231F20" stroke-miterlimit="10" x1="96.117" y1="108.859" x2="94.525" y2="111.614"/>
				<line fill="none" stroke="#231F20" stroke-miterlimit="10" x1="94.525" y1="77.018" x2="96.117" y2="79.772"/>
				<line fill="none" stroke="#231F20" stroke-miterlimit="10" x1="112.91" y1="108.858" x2="114.5" y2="111.614"/>
				<line fill="none" stroke="#231F20" stroke-miterlimit="10" x1="87.215" y1="84.329" x2="89.969" y2="85.919"/>
				<line fill="none" stroke="#231F20" stroke-miterlimit="10" x1="119.057" y1="102.713" x2="121.813" y2="104.304"/>
				<line fill="none" stroke="#231F20" stroke-miterlimit="10" x1="102.426" y1="74.45" x2="102.594" y2="76.035"/>
				<line fill="none" stroke="#231F20" stroke-miterlimit="10" x1="106.436" y1="112.604" x2="106.602" y2="114.182"/>
				<line fill="none" stroke="#231F20" stroke-miterlimit="10" x1="100.361" y1="74.777" x2="100.691" y2="76.336"/>
				<line fill="none" stroke="#231F20" stroke-miterlimit="10" x1="108.338" y1="112.304" x2="108.666" y2="113.854"/>
				<line fill="none" stroke="#231F20" stroke-miterlimit="10" x1="98.342" y1="75.318" x2="98.834" y2="76.834"/>
				<line fill="none" stroke="#231F20" stroke-miterlimit="10" x1="110.197" y1="111.806" x2="110.686" y2="113.313"/>
				<line fill="none" stroke="#231F20" stroke-miterlimit="10" x1="96.389" y1="76.067" x2="97.037" y2="77.523"/>
				<line fill="none" stroke="#231F20" stroke-miterlimit="10" x1="111.992" y1="111.115" x2="112.639" y2="112.563"/>
				<line fill="none" stroke="#231F20" stroke-miterlimit="10" x1="92.771" y1="78.155" x2="93.709" y2="79.445"/>
				<line fill="none" stroke="#231F20" stroke-miterlimit="10" x1="115.322" y1="109.193" x2="116.254" y2="110.477"/>
				<line fill="none" stroke="#231F20" stroke-miterlimit="10" x1="91.148" y1="79.472" x2="92.213" y2="80.656"/>
				<line fill="none" stroke="#231F20" stroke-miterlimit="10" x1="116.818" y1="107.982" x2="117.879" y2="109.16"/>
				<line fill="none" stroke="#231F20" stroke-miterlimit="10" x1="89.67" y1="80.949" x2="90.854" y2="82.017"/>
				<line fill="none" stroke="#231F20" stroke-miterlimit="10" x1="118.18" y1="106.621" x2="119.357" y2="107.683"/>
				<line fill="none" stroke="#231F20" stroke-miterlimit="10" x1="88.354" y1="82.574" x2="89.643" y2="83.512"/>
				<line fill="none" stroke="#231F20" stroke-miterlimit="10" x1="119.393" y1="105.124" x2="120.674" y2="106.058"/>
				<line fill="none" stroke="#231F20" stroke-miterlimit="10" x1="86.266" y1="86.19" x2="87.721" y2="86.84"/>
				<line fill="none" stroke="#231F20" stroke-miterlimit="10" x1="121.313" y1="101.794" x2="122.762" y2="102.44"/>
				<line fill="none" stroke="#231F20" stroke-miterlimit="10" x1="85.516" y1="88.143" x2="87.033" y2="88.636"/>
				<line fill="none" stroke="#231F20" stroke-miterlimit="10" x1="122.004" y1="99.998" x2="123.51" y2="100.489"/>
				<line fill="none" stroke="#231F20" stroke-miterlimit="10" x1="84.975" y1="90.162" x2="86.533" y2="90.494"/>
				<line fill="none" stroke="#231F20" stroke-miterlimit="10" x1="122.502" y1="98.139" x2="124.051" y2="98.469"/>
				<line fill="none" stroke="#231F20" stroke-miterlimit="10" x1="84.646" y1="92.229" x2="86.232" y2="92.396"/>
				<line fill="none" stroke="#231F20" stroke-miterlimit="10" x1="122.803" y1="96.238" x2="124.379" y2="96.403"/>
				<line fill="none" stroke="#231F20" stroke-miterlimit="10" x1="84.646" y1="92.229" x2="86.232" y2="92.396"/>
				<line fill="none" stroke="#231F20" stroke-miterlimit="10" x1="122.803" y1="96.238" x2="124.379" y2="96.403"/>
				<line fill="none" stroke="#231F20" stroke-miterlimit="10" x1="84.646" y1="96.404" x2="86.232" y2="96.237"/>
				<line fill="none" stroke="#231F20" stroke-miterlimit="10" x1="122.803" y1="92.394" x2="124.379" y2="92.228"/>
				<line fill="none" stroke="#231F20" stroke-miterlimit="10" x1="84.975" y1="98.469" x2="86.533" y2="98.138"/>
				<line fill="none" stroke="#231F20" stroke-miterlimit="10" x1="122.5" y1="90.491" x2="124.051" y2="90.161"/>
				<line fill="none" stroke="#231F20" stroke-miterlimit="10" x1="85.516" y1="100.489" x2="87.033" y2="99.996"/>
				<line fill="none" stroke="#231F20" stroke-miterlimit="10" x1="122.004" y1="88.633" x2="123.51" y2="88.142"/>
				<line fill="none" stroke="#231F20" stroke-miterlimit="10" x1="86.266" y1="102.44" x2="87.721" y2="101.793"/>
				<line fill="none" stroke="#231F20" stroke-miterlimit="10" x1="121.313" y1="86.836" x2="122.762" y2="86.19"/>
				<line fill="none" stroke="#231F20" stroke-miterlimit="10" x1="88.354" y1="106.058" x2="89.643" y2="105.12"/>
				<line fill="none" stroke="#231F20" stroke-miterlimit="10" x1="119.391" y1="83.507" x2="120.674" y2="82.573"/>
				<line fill="none" stroke="#231F20" stroke-miterlimit="10" x1="89.668" y1="107.683" x2="90.854" y2="106.615"/>
				<line fill="none" stroke="#231F20" stroke-miterlimit="10" x1="118.18" y1="82.011" x2="119.357" y2="80.949"/>
				<line fill="none" stroke="#231F20" stroke-miterlimit="10" x1="91.146" y1="109.161" x2="92.213" y2="107.976"/>
				<line fill="none" stroke="#231F20" stroke-miterlimit="10" x1="116.818" y1="80.65" x2="117.879" y2="79.471"/>
				<line fill="none" stroke="#231F20" stroke-miterlimit="10" x1="92.771" y1="110.477" x2="93.709" y2="109.186"/>
				<line fill="none" stroke="#231F20" stroke-miterlimit="10" x1="115.322" y1="79.439" x2="116.254" y2="78.154"/>
				<line fill="none" stroke="#231F20" stroke-miterlimit="10" x1="96.389" y1="112.564" x2="97.037" y2="111.106"/>
				<line fill="none" stroke="#231F20" stroke-miterlimit="10" x1="111.992" y1="77.517" x2="112.637" y2="76.067"/>
				<line fill="none" stroke="#231F20" stroke-miterlimit="10" x1="98.34" y1="113.314" x2="98.834" y2="111.796"/>
				<line fill="none" stroke="#231F20" stroke-miterlimit="10" x1="110.197" y1="76.827" x2="110.686" y2="75.317"/>
				<line fill="none" stroke="#231F20" stroke-miterlimit="10" x1="100.359" y1="113.855" x2="100.691" y2="112.294"/>
				<line fill="none" stroke="#231F20" stroke-miterlimit="10" x1="108.336" y1="76.328" x2="108.664" y2="74.776"/>
				<line fill="none" stroke="#231F20" stroke-miterlimit="10" x1="102.426" y1="114.183" x2="102.592" y2="112.594"/>
				<line fill="none" stroke="#231F20" stroke-miterlimit="10" x1="106.436" y1="76.027" x2="106.6" y2="74.449"/>
				<path fill="#231F20" stroke="#231F20" stroke-miterlimit="10" d="M104.098,78.772c0,0-0.426,7.171,0.186,14.921h0.492
					c0,0,0.533-7.279,0.174-14.927L104.098,78.772z"/>
				<polygon fill="#231F20" stroke="#231F20" stroke-miterlimit="10" points="103.354,79.308 104.51,77.407 105.674,79.295 				"/>
				<path fill="#231F20" stroke="#231F20" stroke-miterlimit="10" d="M113.271,93.9c0,0,0.008-0.493-8.049,0.186v0.493
					c0,0,4.465,0.493,8.057,0.173L113.271,93.9z"/>
				<polygon fill="#231F20" stroke="#231F20" stroke-miterlimit="10" points="113.078,93.156 114.979,94.313 113.092,95.477 				"/>
				<circle fill="#231F20" stroke="#231F20" stroke-miterlimit="10" cx="104.514" cy="94.315" r="1.074"/>
				<g>
					<defs>
						<circle id="SVGID_5_" cx="104.514" cy="93.977" r="23.322"/>
					</defs>
					<clipPath id="SVGID_6_">
						<use xlink:href="#SVGID_5_"  overflow="visible"/>
					</clipPath>
				</g>
			</g>
			<g>
				<g>
					<g>
						<defs>
							<circle id="SVGID_7_" cx="102.514" cy="91.977" r="23.322"/>
						</defs>
						<clipPath id="SVGID_8_">
							<use xlink:href="#SVGID_7_"  overflow="visible"/>
						</clipPath>
					</g>
				</g>
				<g>
					<circle fill="#F1F1F2" cx="102.514" cy="91.977" r="23.322"/>
					<g>
						<defs>
							<circle id="SVGID_9_" cx="102.514" cy="91.977" r="23.322"/>
						</defs>
						<clipPath id="SVGID_10_">
							<use xlink:href="#SVGID_9_"  overflow="visible"/>
						</clipPath>
						
							<circle clip-path="url(#SVGID_10_)" fill="none" stroke="#BBBDBF" stroke-width="6" stroke-miterlimit="10" cx="104.575" cy="94.038" r="23.321"/>
					</g>
					<path fill="#404041" d="M102.512,66.837c-13.861,0-25.139,11.277-25.139,25.14c0,13.863,11.277,25.142,25.139,25.142
						c13.865,0,25.143-11.278,25.143-25.142C127.654,78.114,116.377,66.837,102.512,66.837z M102.512,113.479
						c-11.855,0-21.502-9.646-21.502-21.503c0-11.855,9.646-21.502,21.502-21.502c11.857,0,21.504,9.646,21.504,21.502
						C124.016,103.834,114.369,113.479,102.512,113.479z"/>
					<g>
						
							<line fill="none" stroke="#224099" stroke-width="2" stroke-miterlimit="10" x1="102.514" y1="72.341" x2="102.514" y2="75.522"/>
						
							<line fill="none" stroke="#224099" stroke-width="2" stroke-miterlimit="10" x1="102.514" y1="109.108" x2="102.514" y2="112.291"/>
					</g>
					<g>
						
							<line fill="none" stroke="#224099" stroke-width="2" stroke-miterlimit="10" x1="122.488" y1="92.315" x2="119.307" y2="92.315"/>
						
							<line fill="none" stroke="#224099" stroke-width="2" stroke-miterlimit="10" x1="85.721" y1="92.315" x2="82.539" y2="92.315"/>
					</g>
					<g>
						<line fill="none" stroke="#EE4036" stroke-miterlimit="10" x1="119.813" y1="82.328" x2="117.057" y2="83.92"/>
						<line fill="none" stroke="#EE4036" stroke-miterlimit="10" x1="87.969" y1="100.713" x2="85.215" y2="102.304"/>
					</g>
					<g>
						<line fill="none" stroke="#EE4036" stroke-miterlimit="10" x1="112.5" y1="75.018" x2="110.91" y2="77.772"/>
						<line fill="none" stroke="#EE4036" stroke-miterlimit="10" x1="94.117" y1="106.859" x2="92.525" y2="109.614"/>
					</g>
					<g>
						<line fill="none" stroke="#EE4036" stroke-miterlimit="10" x1="92.525" y1="75.018" x2="94.117" y2="77.772"/>
						<line fill="none" stroke="#EE4036" stroke-miterlimit="10" x1="110.91" y1="106.858" x2="112.5" y2="109.614"/>
					</g>
					<g>
						<line fill="none" stroke="#EE4036" stroke-miterlimit="10" x1="85.215" y1="82.329" x2="87.969" y2="83.919"/>
						<line fill="none" stroke="#EE4036" stroke-miterlimit="10" x1="117.057" y1="100.713" x2="119.813" y2="102.304"/>
					</g>
					<g>
						<line fill="none" stroke="#A6A8AB" stroke-miterlimit="10" x1="100.426" y1="72.45" x2="100.594" y2="74.035"/>
						<line fill="none" stroke="#A6A8AB" stroke-miterlimit="10" x1="104.436" y1="110.604" x2="104.602" y2="112.182"/>
					</g>
					<g>
						<line fill="none" stroke="#A6A8AB" stroke-miterlimit="10" x1="98.361" y1="72.777" x2="98.691" y2="74.336"/>
						<line fill="none" stroke="#A6A8AB" stroke-miterlimit="10" x1="106.338" y1="110.304" x2="106.666" y2="111.854"/>
					</g>
					<g>
						<line fill="none" stroke="#A6A8AB" stroke-miterlimit="10" x1="96.342" y1="73.318" x2="96.834" y2="74.834"/>
						<line fill="none" stroke="#A6A8AB" stroke-miterlimit="10" x1="108.197" y1="109.806" x2="108.686" y2="111.313"/>
					</g>
					<g>
						<line fill="none" stroke="#A6A8AB" stroke-miterlimit="10" x1="94.389" y1="74.067" x2="95.037" y2="75.523"/>
						<line fill="none" stroke="#A6A8AB" stroke-miterlimit="10" x1="109.992" y1="109.115" x2="110.639" y2="110.563"/>
					</g>
					<g>
						<line fill="none" stroke="#A6A8AB" stroke-miterlimit="10" x1="90.771" y1="76.155" x2="91.709" y2="77.445"/>
						<line fill="none" stroke="#A6A8AB" stroke-miterlimit="10" x1="113.322" y1="107.193" x2="114.254" y2="108.477"/>
					</g>
					<g>
						<line fill="none" stroke="#A6A8AB" stroke-miterlimit="10" x1="89.148" y1="77.472" x2="90.213" y2="78.656"/>
						<line fill="none" stroke="#A6A8AB" stroke-miterlimit="10" x1="114.818" y1="105.982" x2="115.879" y2="107.16"/>
					</g>
					<g>
						<line fill="none" stroke="#A6A8AB" stroke-miterlimit="10" x1="87.67" y1="78.949" x2="88.854" y2="80.017"/>
						<line fill="none" stroke="#A6A8AB" stroke-miterlimit="10" x1="116.18" y1="104.621" x2="117.357" y2="105.683"/>
					</g>
					<g>
						<line fill="none" stroke="#A6A8AB" stroke-miterlimit="10" x1="86.354" y1="80.574" x2="87.643" y2="81.512"/>
						<line fill="none" stroke="#A6A8AB" stroke-miterlimit="10" x1="117.393" y1="103.124" x2="118.674" y2="104.058"/>
					</g>
					<g>
						<line fill="none" stroke="#A6A8AB" stroke-miterlimit="10" x1="84.266" y1="84.19" x2="85.721" y2="84.84"/>
						<line fill="none" stroke="#A6A8AB" stroke-miterlimit="10" x1="119.313" y1="99.794" x2="120.762" y2="100.44"/>
					</g>
					<g>
						<line fill="none" stroke="#A6A8AB" stroke-miterlimit="10" x1="83.516" y1="86.143" x2="85.033" y2="86.636"/>
						<line fill="none" stroke="#A6A8AB" stroke-miterlimit="10" x1="120.004" y1="97.998" x2="121.51" y2="98.489"/>
					</g>
					<g>
						<line fill="none" stroke="#A6A8AB" stroke-miterlimit="10" x1="82.975" y1="88.162" x2="84.533" y2="88.494"/>
						<line fill="none" stroke="#A6A8AB" stroke-miterlimit="10" x1="120.502" y1="96.139" x2="122.051" y2="96.469"/>
					</g>
					<g>
						<line fill="none" stroke="#929497" stroke-miterlimit="10" x1="82.646" y1="90.229" x2="84.232" y2="90.396"/>
						<line fill="none" stroke="#929497" stroke-miterlimit="10" x1="120.803" y1="94.238" x2="122.379" y2="94.403"/>
					</g>
					<g>
						<line fill="none" stroke="#A6A8AB" stroke-miterlimit="10" x1="82.646" y1="90.229" x2="84.232" y2="90.396"/>
						<line fill="none" stroke="#A6A8AB" stroke-miterlimit="10" x1="120.803" y1="94.238" x2="122.379" y2="94.403"/>
					</g>
					<g>
						<line fill="none" stroke="#A6A8AB" stroke-miterlimit="10" x1="82.646" y1="94.404" x2="84.232" y2="94.237"/>
						<line fill="none" stroke="#A6A8AB" stroke-miterlimit="10" x1="120.803" y1="90.394" x2="122.379" y2="90.228"/>
					</g>
					<g>
						<line fill="none" stroke="#A6A8AB" stroke-miterlimit="10" x1="82.975" y1="96.469" x2="84.533" y2="96.138"/>
						<line fill="none" stroke="#A6A8AB" stroke-miterlimit="10" x1="120.5" y1="88.491" x2="122.051" y2="88.161"/>
					</g>
					<g>
						<line fill="none" stroke="#A6A8AB" stroke-miterlimit="10" x1="83.516" y1="98.489" x2="85.033" y2="97.996"/>
						<line fill="none" stroke="#A6A8AB" stroke-miterlimit="10" x1="120.004" y1="86.633" x2="121.51" y2="86.142"/>
					</g>
					<g>
						<line fill="none" stroke="#A6A8AB" stroke-miterlimit="10" x1="84.266" y1="100.44" x2="85.721" y2="99.793"/>
						<line fill="none" stroke="#A6A8AB" stroke-miterlimit="10" x1="119.313" y1="84.836" x2="120.762" y2="84.19"/>
					</g>
					<g>
						<line fill="none" stroke="#A6A8AB" stroke-miterlimit="10" x1="86.354" y1="104.058" x2="87.643" y2="103.12"/>
						<line fill="none" stroke="#A6A8AB" stroke-miterlimit="10" x1="117.391" y1="81.507" x2="118.674" y2="80.573"/>
					</g>
					<g>
						<line fill="none" stroke="#A6A8AB" stroke-miterlimit="10" x1="87.668" y1="105.683" x2="88.854" y2="104.615"/>
						<line fill="none" stroke="#A6A8AB" stroke-miterlimit="10" x1="116.18" y1="80.011" x2="117.357" y2="78.949"/>
					</g>
					<g>
						<line fill="none" stroke="#A6A8AB" stroke-miterlimit="10" x1="89.146" y1="107.161" x2="90.213" y2="105.976"/>
						<line fill="none" stroke="#A6A8AB" stroke-miterlimit="10" x1="114.818" y1="78.65" x2="115.879" y2="77.471"/>
					</g>
					<g>
						<line fill="none" stroke="#A6A8AB" stroke-miterlimit="10" x1="90.771" y1="108.477" x2="91.709" y2="107.186"/>
						<line fill="none" stroke="#A6A8AB" stroke-miterlimit="10" x1="113.322" y1="77.439" x2="114.254" y2="76.154"/>
					</g>
					<g>
						<line fill="none" stroke="#A6A8AB" stroke-miterlimit="10" x1="94.389" y1="110.564" x2="95.037" y2="109.106"/>
						<line fill="none" stroke="#A6A8AB" stroke-miterlimit="10" x1="109.992" y1="75.517" x2="110.637" y2="74.067"/>
					</g>
					<g>
						<line fill="none" stroke="#A6A8AB" stroke-miterlimit="10" x1="96.34" y1="111.314" x2="96.834" y2="109.796"/>
						<line fill="none" stroke="#A6A8AB" stroke-miterlimit="10" x1="108.197" y1="74.827" x2="108.686" y2="73.317"/>
					</g>
					<g>
						<line fill="none" stroke="#A6A8AB" stroke-miterlimit="10" x1="98.359" y1="111.855" x2="98.691" y2="110.294"/>
						<line fill="none" stroke="#A6A8AB" stroke-miterlimit="10" x1="106.336" y1="74.328" x2="106.664" y2="72.776"/>
					</g>
					<g>
						<line fill="none" stroke="#A6A8AB" stroke-miterlimit="10" x1="100.426" y1="112.183" x2="100.592" y2="110.594"/>
						<line fill="none" stroke="#A6A8AB" stroke-miterlimit="10" x1="104.436" y1="74.027" x2="104.6" y2="72.449"/>
					</g>
					<g>
						<path fill="#BE1E2D" stroke="#BE1E2D" stroke-miterlimit="10" d="M102.098,76.772c0,0-0.426,7.171,0.186,14.921h0.492
							c0,0,0.533-7.279,0.174-14.927L102.098,76.772z"/>
						<polygon fill="#BE1E2D" stroke="#BE1E2D" stroke-miterlimit="10" points="101.354,77.308 102.51,75.407 103.674,77.295 						
							"/>
					</g>
					<g>
						<path fill="#BE1E2D" stroke="#BE1E2D" stroke-miterlimit="10" d="M111.271,91.9c0,0,0.008-0.493-8.049,0.186v0.493
							c0,0,4.465,0.493,8.057,0.173L111.271,91.9z"/>
						<polygon fill="#BE1E2D" stroke="#BE1E2D" stroke-miterlimit="10" points="111.078,91.156 112.979,92.313 111.092,93.477 
													"/>
					</g>
					<circle fill="#231F20" stroke="#231F20" stroke-miterlimit="10" cx="102.514" cy="92.315" r="1.074"/>
				</g>
				<g>
					<g>
						<defs>
							<circle id="SVGID_11_" cx="102.514" cy="91.977" r="23.322"/>
						</defs>
						<clipPath id="SVGID_12_">
							<use xlink:href="#SVGID_11_"  overflow="visible"/>
						</clipPath>
					</g>
				</g>
			</g>
		</g>
	</g>
	<g display="inline">
		<g opacity="0.2">
			<path fill-rule="evenodd" clip-rule="evenodd" fill="#231F20" d="M45.858,101.811l-10.889,3.752l4.567-10.568l36.979-32.337
				c1.021-0.946,2.633-0.885,3.581,0.138l2.874,3.1c0.947,1.021,0.887,2.633-0.135,3.579L45.858,101.811z"/>
			<path fill-rule="evenodd" clip-rule="evenodd" fill="#231F20" d="M45.858,101.811l-10.889,3.752l8.037-7.445l38.526-33.772
				l1.437,1.549c0.948,1.022,0.888,2.634-0.134,3.58L45.858,101.811z"/>
			<path fill-rule="evenodd" clip-rule="evenodd" fill="#231F20" d="M45.858,101.811l-10.889,3.752l4.567-10.568l34.241-29.802
				c2.634,2.022,4.709,4.296,6.322,6.816L45.858,101.811z"/>
			<path fill-rule="evenodd" clip-rule="evenodd" fill="#231F20" d="M45.858,101.811l-10.889,3.752l8.037-7.445l34.232-29.794
				c1.083,1.163,2.033,2.392,2.861,3.686L45.858,101.811z"/>
			<path fill-rule="evenodd" clip-rule="evenodd" fill="#231F20" d="M45.858,101.811l-10.889,3.752l4.567-10.568l32.068-27.79
				c2.675,2.01,4.747,4.285,6.322,6.816L45.858,101.811z"/>
			<path fill-rule="evenodd" clip-rule="evenodd" fill="#231F20" d="M45.858,101.811l-10.889,3.752l8.037-7.445l32.079-27.801
				c1.09,1.166,2.03,2.401,2.842,3.705L45.858,101.811z"/>
			<path fill-rule="evenodd" clip-rule="evenodd" fill="#231F20" d="M45.858,101.812l-10.889,3.751l4.567-10.567
				c1.206,0.896,2.373,1.939,3.469,3.122C44.104,99.3,45.056,100.542,45.858,101.812z"/>
			<path fill-rule="evenodd" clip-rule="evenodd" fill="#231F20" d="M45.858,101.811l-10.889,3.752l8.037-7.445
				C44.104,99.3,45.056,100.542,45.858,101.811z"/>
			<path fill-rule="evenodd" clip-rule="evenodd" fill="#231F20" d="M38.566,104.322l-3.597,1.24l1.509-3.492
				c0.399,0.297,0.785,0.642,1.147,1.032C37.986,103.493,38.302,103.904,38.566,104.322z"/>
		</g>
		<g>
			<g>
				<path fill-rule="evenodd" clip-rule="evenodd" fill="#F15B69" d="M44.858,100.811l-10.889,3.752l4.567-10.568l36.979-32.337
					c1.021-0.946,2.633-0.885,3.581,0.138l2.874,3.1c0.947,1.021,0.887,2.633-0.135,3.579L44.858,100.811z"/>
				<path fill-rule="evenodd" clip-rule="evenodd" fill="#C6222A" d="M44.858,100.811l-10.889,3.752l8.037-7.445l38.526-33.772
					l1.437,1.549c0.948,1.022,0.888,2.634-0.134,3.58L44.858,100.811z"/>
				<path fill-rule="evenodd" clip-rule="evenodd" fill="#FFFFFF" d="M44.858,100.811l-10.889,3.752l4.567-10.568l34.241-29.802
					c2.634,2.022,4.709,4.296,6.322,6.816L44.858,100.811z"/>
				<path fill-rule="evenodd" clip-rule="evenodd" fill="#D1D1D0" d="M44.858,100.811l-10.889,3.752l8.037-7.445l34.232-29.794
					c1.083,1.163,2.033,2.392,2.861,3.686L44.858,100.811z"/>
				<path fill-rule="evenodd" clip-rule="evenodd" fill="#F5E6B6" d="M44.858,100.811l-10.889,3.752l4.567-10.568l32.068-27.79
					c2.675,2.01,4.747,4.285,6.322,6.816L44.858,100.811z"/>
				<path fill-rule="evenodd" clip-rule="evenodd" fill="#FED800" d="M44.858,100.811l-10.889,3.752l8.037-7.445l32.079-27.801
					c1.09,1.166,2.03,2.401,2.842,3.705L44.858,100.811z"/>
				<path fill-rule="evenodd" clip-rule="evenodd" fill="#F0B16C" d="M44.858,100.812l-10.889,3.751l4.567-10.567
					c1.206,0.896,2.373,1.939,3.469,3.122C43.104,98.3,44.056,99.542,44.858,100.812z"/>
				<path fill-rule="evenodd" clip-rule="evenodd" fill="#C78B4B" d="M44.858,100.811l-10.889,3.752l8.037-7.445
					C43.104,98.3,44.056,99.542,44.858,100.811z"/>
				<path fill-rule="evenodd" clip-rule="evenodd" fill="#1E1E1E" d="M37.566,103.322l-3.597,1.24l1.509-3.492
					c0.399,0.297,0.785,0.642,1.147,1.032C36.986,102.493,37.302,102.904,37.566,103.322z"/>
			</g>
		</g>
	</g>
</g>
<g>
	<path opacity="0.5" fill="#FFFFFF" d="M138.045,21.96v116.08H21.955c-11,0-20-9-20-20V21.96c0-11,9-20,20-20h96.09
		C129.045,1.96,138.045,10.96,138.045,21.96z"/>
	<g display="none">
		<g display="inline">
			<path fill="#D0D2D3" d="M105.085,103.398c0.038,0.549-0.38,1.029-0.929,1.067l-65.736,4.582c-0.549,0.038-1.029-0.38-1.067-0.929
				l-5.247-75.315c-0.038-0.549,0.379-1.029,0.928-1.067l65.733-4.582c0.549-0.038,1.029,0.379,1.067,0.928L105.085,103.398z"/>
		</g>
		<g display="inline">
			<g opacity="0.4">
				<path fill="#231F20" d="M112.291,114.278c0,1.1-0.9,2-2,2H27.534c-1.1,0-2-0.9-2-2v-89.27c0-1.1,0.9-2,2-2h82.757
					c1.1,0,2,0.9,2,2V114.278z"/>
			</g>
			<g>
				<path fill="#A91F46" d="M111.291,113.278c0,1.1-0.9,2-2,2H26.534c-1.1,0-2-0.9-2-2v-89.27c0-1.1,0.9-2,2-2h82.757
					c1.1,0,2,0.9,2,2V113.278z"/>
			</g>
		</g>
		<g display="inline">
			<g>
				<g opacity="0.4">
					
						<rect x="34.404" y="29.016" transform="matrix(0.998 -0.0637 0.0637 0.998 -4.2647 4.5388)" fill="#231F20" width="69.183" height="80.172"/>
				</g>
				<g>
					
						<rect x="33.404" y="28.016" transform="matrix(0.998 -0.0637 0.0637 0.998 -4.203 4.473)" fill="#D0D2D3" width="69.183" height="80.172"/>
				</g>
			</g>
			<g>
				<line fill="none" stroke="#E6E7E8" stroke-width="2" stroke-miterlimit="10" x1="46.117" y1="39.502" x2="92.655" y2="36.528"/>
				<line fill="none" stroke="#E6E7E8" stroke-width="2" stroke-miterlimit="10" x1="46.598" y1="47.015" x2="93.135" y2="44.042"/>
				<line fill="none" stroke="#E6E7E8" stroke-width="2" stroke-miterlimit="10" x1="47.078" y1="54.53" x2="93.614" y2="51.558"/>
				<line fill="none" stroke="#E6E7E8" stroke-width="2" stroke-miterlimit="10" x1="47.557" y1="62.045" x2="94.095" y2="59.071"/>
				<line fill="none" stroke="#E6E7E8" stroke-width="2" stroke-miterlimit="10" x1="48.037" y1="69.561" x2="94.576" y2="66.586"/>
				<line fill="none" stroke="#E6E7E8" stroke-width="2" stroke-miterlimit="10" x1="48.518" y1="77.075" x2="95.055" y2="74.102"/>
				<line fill="none" stroke="#E6E7E8" stroke-width="2" stroke-miterlimit="10" x1="48.996" y1="84.589" x2="95.535" y2="81.616"/>
				<line fill="none" stroke="#E6E7E8" stroke-width="2" stroke-miterlimit="10" x1="49.477" y1="92.104" x2="96.016" y2="89.131"/>
				<line fill="none" stroke="#E6E7E8" stroke-width="2" stroke-miterlimit="10" x1="49.956" y1="99.619" x2="96.494" y2="96.646"/>
			</g>
		</g>
		<g display="inline">
			<g>
				<g opacity="0.4">
					<rect x="35.004" y="25.978" fill="#231F20" width="69.185" height="80.174"/>
				</g>
				<g>
					<rect x="34.004" y="24.978" fill="#FFFFFF" width="69.185" height="80.174"/>
				</g>
			</g>
			<g>
				<g>
					
						<line fill="none" stroke="#E6E7E8" stroke-width="2" stroke-miterlimit="10" x1="48.406" y1="37.426" x2="95.037" y2="37.426"/>
					
						<line fill="none" stroke="#E6E7E8" stroke-width="2" stroke-miterlimit="10" x1="48.406" y1="44.956" x2="95.037" y2="44.956"/>
					
						<line fill="none" stroke="#E6E7E8" stroke-width="2" stroke-miterlimit="10" x1="48.406" y1="52.487" x2="95.037" y2="52.486"/>
					
						<line fill="none" stroke="#EC1C24" stroke-width="2" stroke-miterlimit="10" x1="48.406" y1="60.016" x2="95.037" y2="60.016"/>
					
						<line fill="none" stroke="#EC1C24" stroke-width="2" stroke-miterlimit="10" x1="48.406" y1="67.546" x2="95.037" y2="67.546"/>
					
						<line fill="none" stroke="#E6E7E8" stroke-width="2" stroke-miterlimit="10" x1="48.406" y1="75.076" x2="95.037" y2="75.076"/>
					
						<line fill="none" stroke="#E6E7E8" stroke-width="2" stroke-miterlimit="10" x1="48.406" y1="82.605" x2="95.037" y2="82.605"/>
					
						<line fill="none" stroke="#E6E7E8" stroke-width="2" stroke-miterlimit="10" x1="48.406" y1="90.137" x2="95.037" y2="90.137"/>
					
						<line fill="none" stroke="#EC1C24" stroke-width="2" stroke-miterlimit="10" x1="48.406" y1="97.666" x2="95.037" y2="97.665"/>
				</g>
				<path fill="#AFC736" d="M45.697,34.508c-0.256-0.166-0.613-0.115-0.798,0.111l-2.886,3.521l-0.963-1.083
					c-0.191-0.221-0.551-0.258-0.797-0.086c-0.25,0.176-0.291,0.496-0.096,0.715l1.891,2.134l3.77-4.604
					C46.004,34.989,45.951,34.671,45.697,34.508z"/>
				<path fill="#AFC736" d="M45.697,42.348c-0.256-0.164-0.613-0.114-0.798,0.113l-2.886,3.52l-0.963-1.082
					c-0.191-0.221-0.551-0.257-0.797-0.084c-0.25,0.175-0.291,0.493-0.096,0.713l1.891,2.135l3.77-4.604
					C46.004,42.83,45.951,42.513,45.697,42.348z"/>
				<path fill="#AFC736" d="M45.697,49.878c-0.256-0.164-0.613-0.113-0.798,0.112l-2.886,3.521l-0.963-1.083
					c-0.191-0.221-0.551-0.256-0.797-0.084c-0.25,0.175-0.291,0.493-0.096,0.713l1.891,2.134l3.77-4.604
					C46.004,50.36,45.951,50.044,45.697,49.878z"/>
				<path fill="#AFC736" d="M45.697,72.468c-0.256-0.164-0.613-0.114-0.798,0.112l-2.886,3.522l-0.963-1.084
					c-0.191-0.221-0.551-0.257-0.797-0.085c-0.25,0.175-0.291,0.495-0.096,0.713l1.891,2.135l3.77-4.604
					C46.004,72.949,45.951,72.633,45.697,72.468z"/>
				<path fill="#AFC736" d="M45.697,79.997c-0.256-0.164-0.613-0.113-0.798,0.113l-2.886,3.521l-0.963-1.083
					c-0.191-0.221-0.551-0.258-0.797-0.086c-0.25,0.175-0.291,0.495-0.096,0.714l1.891,2.134l3.77-4.604
					C46.004,80.479,45.951,80.163,45.697,79.997z"/>
				<path fill="#AFC736" d="M45.697,87.528c-0.256-0.166-0.613-0.115-0.798,0.112l-2.886,3.522l-0.963-1.084
					c-0.191-0.223-0.551-0.257-0.797-0.086c-0.25,0.176-0.291,0.496-0.096,0.714l1.891,2.134l3.77-4.604
					C46.004,88.009,45.951,87.693,45.697,87.528z"/>
				<line fill="#AFC736" x1="43.752" y1="59.451" x2="43.742" y2="59.441"/>
				<g>
					<g>
						<path fill="#EC1C24" d="M40.572,62.229c-0.141,0-0.278-0.054-0.385-0.163c-0.215-0.213-0.215-0.555,0-0.771l3.33-3.328
							c0.213-0.215,0.559-0.215,0.773,0c0.212,0.211,0.212,0.556,0,0.77l-3.333,3.33C40.849,62.176,40.713,62.229,40.572,62.229z"/>
					</g>
					<g>
						<path fill="#EC1C24" d="M43.904,62.229c0.141,0,0.277-0.054,0.385-0.163c0.214-0.213,0.214-0.555,0-0.771l-3.331-3.329
							c-0.213-0.215-0.559-0.215-0.772,0c-0.213,0.211-0.213,0.556,0,0.77l3.332,3.33C43.626,62.176,43.762,62.229,43.904,62.229z"
							/>
					</g>
				</g>
				<g>
					<g>
						<path fill="#EC1C24" d="M40.572,69.758c-0.141,0-0.278-0.052-0.385-0.162c-0.215-0.213-0.215-0.556,0-0.771l3.33-3.33
							c0.213-0.215,0.559-0.215,0.773,0c0.212,0.213,0.212,0.557,0,0.771l-3.333,3.33C40.849,69.706,40.713,69.758,40.572,69.758z"
							/>
					</g>
					<g>
						<path fill="#EC1C24" d="M43.904,69.758c0.141,0,0.277-0.052,0.385-0.162c0.214-0.213,0.214-0.556,0-0.769l-3.331-3.332
							c-0.213-0.215-0.559-0.215-0.772,0c-0.213,0.213-0.213,0.557,0,0.771l3.332,3.33C43.626,69.706,43.762,69.758,43.904,69.758z"
							/>
					</g>
				</g>
				<g>
					<g>
						<path fill="#EC1C24" d="M40.572,99.877c-0.141,0-0.278-0.052-0.385-0.161c-0.215-0.213-0.215-0.558,0-0.771l3.33-3.33
							c0.213-0.215,0.559-0.215,0.773,0c0.212,0.213,0.212,0.557,0,0.77l-3.333,3.332C40.849,99.825,40.713,99.877,40.572,99.877z"
							/>
					</g>
					<g>
						<path fill="#EC1C24" d="M43.904,99.877c0.141,0,0.277-0.052,0.385-0.161c0.214-0.213,0.214-0.558,0-0.77l-3.331-3.332
							c-0.213-0.215-0.559-0.215-0.772,0c-0.213,0.213-0.213,0.557,0,0.77l3.332,3.332C43.626,99.825,43.762,99.877,43.904,99.877z"
							/>
					</g>
				</g>
			</g>
		</g>
		<g display="inline">
			<g opacity="0.2">
				<path fill="#231F20" d="M94.31,23.471v9l-52.454,0.001v-9.001c0-1.699,1.388-3.087,3.086-3.087h20.069
					c-0.019,0.092-0.019,0.184-0.019,0.278c0,1.759,1.348,3.188,3.003,3.188c1.657,0,3.003-1.43,3.003-3.188
					c0-0.095,0-0.187-0.02-0.278h20.245C92.92,20.384,94.31,21.771,94.31,23.471z"/>
				<path fill="#231F20" d="M76.132,20.384c-0.134-4.464-3.733-8.064-8.137-8.064c-4.405,0-8.003,3.601-8.138,8.064
					c-0.011,0.092-0.011,0.186-0.011,0.278c0,4.599,3.652,8.332,8.148,8.331c4.494,0,8.147-3.732,8.147-8.331
					C76.143,20.567,76.143,20.476,76.132,20.384z M67.995,23.851c-1.655,0-3.003-1.43-3.003-3.188c0-0.095,0-0.187,0.019-0.278
					c0.124-1.626,1.41-2.921,2.984-2.921s2.859,1.295,2.983,2.921c0.02,0.092,0.02,0.184,0.02,0.278
					C70.998,22.421,69.652,23.851,67.995,23.851z"/>
			</g>
			<g>
				<g>
					<linearGradient id="SVGID_13_" gradientUnits="userSpaceOnUse" x1="68.0825" y1="18.3838" x2="68.0825" y2="30.4717">
						<stop  offset="0" style="stop-color:#A6A8AB"/>
						<stop  offset="0.6485" style="stop-color:#9EA0A3"/>
						<stop  offset="1" style="stop-color:#808184"/>
					</linearGradient>
					<path fill="url(#SVGID_13_)" d="M94.31,21.471v9l-52.454,0.001v-9.001c0-1.699,1.388-3.087,3.086-3.087h20.069
						c-0.019,0.092-0.019,0.184-0.019,0.278c0,1.759,1.348,3.188,3.003,3.188c1.657,0,3.003-1.43,3.003-3.188
						c0-0.095,0-0.187-0.02-0.278h20.245C92.92,18.384,94.31,19.771,94.31,21.471z"/>
					<g>
						<linearGradient id="SVGID_14_" gradientUnits="userSpaceOnUse" x1="67.9946" y1="26.9932" x2="67.9946" y2="10.3193">
							<stop  offset="0" style="stop-color:#A6A8AB"/>
							<stop  offset="0.4848" style="stop-color:#989A9D"/>
							<stop  offset="1" style="stop-color:#808184"/>
						</linearGradient>
						<path fill="url(#SVGID_14_)" d="M76.132,18.384c-0.134-4.464-3.733-8.064-8.137-8.064c-4.405,0-8.003,3.601-8.138,8.064
							c-0.011,0.092-0.011,0.186-0.011,0.278c0,4.599,3.652,8.332,8.148,8.331c4.494,0,8.147-3.732,8.147-8.331
							C76.143,18.567,76.143,18.476,76.132,18.384z M67.995,21.851c-1.655,0-3.003-1.43-3.003-3.188c0-0.095,0-0.187,0.019-0.278
							c0.124-1.626,1.41-2.921,2.984-2.921s2.859,1.295,2.983,2.921c0.02,0.092,0.02,0.184,0.02,0.278
							C70.998,20.421,69.652,21.851,67.995,21.851z"/>
					</g>
				</g>
			</g>
		</g>
		<g display="inline">
			<g>
				<g>
					<path fill="#6F92C5" d="M125.279,59.002c0,0.55-0.45,1-1,1l-37.004,0.001c-0.55,0-1-0.45-1-1V37.77c0-0.55,0.45-1,1-1h37.004
						c0.55,0,1,0.45,1,1V59.002z"/>
				</g>
				<polygon fill="#6F92C5" points="89.918,66.345 89.918,58.973 95.234,58.973 				"/>
			</g>
			<g>
				<circle fill="#FFFFFF" cx="93.729" cy="48.376" r="2.128"/>
				<circle fill="#FFFFFF" cx="99.854" cy="48.376" r="2.128"/>
				<path fill="#FFFFFF" d="M105.98,46.248c-1.174,0-2.13,0.955-2.13,2.129s0.956,2.128,2.13,2.128c1.172,0,2.127-0.954,2.127-2.128
					S107.152,46.248,105.98,46.248z"/>
				<circle fill="#FFFFFF" cx="112.104" cy="48.376" r="2.128"/>
				<path fill="#FFFFFF" d="M118.229,46.248c-1.172,0-2.127,0.955-2.127,2.13c0,1.173,0.955,2.127,2.127,2.127
					c1.174,0,2.129-0.954,2.129-2.127C120.357,47.203,119.402,46.248,118.229,46.248z"/>
			</g>
		</g>
	</g>
	<g>
		<g>
			<g>
				<path fill="#D0D2D3" d="M104.392,103.954c0.038,0.549-0.38,1.029-0.929,1.067l-65.736,4.582
					c-0.549,0.038-1.029-0.38-1.067-0.929L31.413,33.36c-0.038-0.549,0.379-1.029,0.928-1.067l65.733-4.582
					c0.549-0.038,1.029,0.379,1.067,0.928L104.392,103.954z"/>
			</g>
			<g>
				<g opacity="0.4">
					<path fill="#231F20" d="M111.598,112.834c0,2.2-1.8,4-4,4H28.841c-2.2,0-4-1.8-4-4v-85.27c0-2.2,1.8-4,4-4h78.757
						c2.2,0,4,1.8,4,4V112.834z"/>
				</g>
				<g>
					<path fill="#404041" d="M110.598,111.834c0,2.2-1.8,4-4,4H27.841c-2.2,0-4-1.8-4-4v-85.27c0-2.2,1.8-4,4-4h78.757
						c2.2,0,4,1.8,4,4V111.834z"/>
				</g>
			</g>
			<g>
				<g>
					<g opacity="0.4">
						
							<rect x="33.711" y="29.572" transform="matrix(0.998 -0.0637 0.0637 0.998 -4.3015 4.4957)" fill="#231F20" width="69.183" height="80.172"/>
					</g>
					<g>
						
							<rect x="32.711" y="28.572" transform="matrix(0.998 -0.0637 0.0637 0.998 -4.2398 4.4299)" fill="#D0D2D3" width="69.183" height="80.172"/>
					</g>
				</g>
				<g>
					
						<line fill="none" stroke="#E6E7E8" stroke-width="2" stroke-miterlimit="10" x1="45.424" y1="40.058" x2="91.962" y2="37.084"/>
					<line fill="none" stroke="#E6E7E8" stroke-width="2" stroke-miterlimit="10" x1="45.904" y1="47.57" x2="92.441" y2="44.598"/>
					
						<line fill="none" stroke="#E6E7E8" stroke-width="2" stroke-miterlimit="10" x1="46.385" y1="55.086" x2="92.921" y2="52.113"/>
					
						<line fill="none" stroke="#E6E7E8" stroke-width="2" stroke-miterlimit="10" x1="46.863" y1="62.601" x2="93.401" y2="59.627"/>
					
						<line fill="none" stroke="#E6E7E8" stroke-width="2" stroke-miterlimit="10" x1="47.344" y1="70.116" x2="93.883" y2="67.142"/>
					
						<line fill="none" stroke="#E6E7E8" stroke-width="2" stroke-miterlimit="10" x1="47.824" y1="77.631" x2="94.361" y2="74.657"/>
					
						<line fill="none" stroke="#E6E7E8" stroke-width="2" stroke-miterlimit="10" x1="48.303" y1="85.145" x2="94.842" y2="82.172"/>
					<line fill="none" stroke="#E6E7E8" stroke-width="2" stroke-miterlimit="10" x1="48.783" y1="92.66" x2="95.322" y2="89.687"/>
					
						<line fill="none" stroke="#E6E7E8" stroke-width="2" stroke-miterlimit="10" x1="49.263" y1="100.175" x2="95.801" y2="97.201"/>
				</g>
			</g>
			<g>
				<g>
					<g opacity="0.4">
						<rect x="34.311" y="26.533" fill="#231F20" width="69.184" height="80.174"/>
					</g>
					<g>
						<rect x="33.311" y="25.533" fill="#FFFFFF" width="69.184" height="80.174"/>
					</g>
				</g>
				<g>
					<g>
						
							<line fill="none" stroke="#E6E7E8" stroke-width="2" stroke-miterlimit="10" x1="47.713" y1="37.981" x2="94.344" y2="37.981"/>
						
							<line fill="none" stroke="#E6E7E8" stroke-width="2" stroke-miterlimit="10" x1="47.713" y1="45.512" x2="94.344" y2="45.512"/>
						
							<line fill="none" stroke="#E6E7E8" stroke-width="2" stroke-miterlimit="10" x1="47.713" y1="53.043" x2="94.344" y2="53.042"/>
						
							<line fill="none" stroke="#E6E7E8" stroke-width="2" stroke-miterlimit="10" x1="47.713" y1="60.571" x2="94.344" y2="60.571"/>
						
							<line fill="none" stroke="#EC1C24" stroke-width="2" stroke-miterlimit="10" x1="47.713" y1="68.102" x2="94.344" y2="68.102"/>
						
							<line fill="none" stroke="#EC1C24" stroke-width="2" stroke-miterlimit="10" x1="47.713" y1="75.632" x2="94.344" y2="75.632"/>
						
							<line fill="none" stroke="#E6E7E8" stroke-width="2" stroke-miterlimit="10" x1="47.713" y1="83.161" x2="94.344" y2="83.161"/>
						
							<line fill="none" stroke="#E6E7E8" stroke-width="2" stroke-miterlimit="10" x1="47.713" y1="90.692" x2="94.344" y2="90.692"/>
						
							<line fill="none" stroke="#E6E7E8" stroke-width="2" stroke-miterlimit="10" x1="47.713" y1="98.222" x2="94.344" y2="98.221"/>
					</g>
					<path fill="#AFC736" d="M45.004,35.063c-0.256-0.166-0.613-0.115-0.798,0.111l-2.886,3.521l-0.963-1.083
						c-0.191-0.221-0.551-0.258-0.797-0.086c-0.25,0.176-0.291,0.496-0.096,0.715l1.891,2.134l3.77-4.604
						C45.311,35.545,45.258,35.227,45.004,35.063z"/>
					<path fill="#AFC736" d="M45.004,42.903c-0.256-0.164-0.613-0.114-0.798,0.113l-2.886,3.52l-0.963-1.082
						c-0.191-0.221-0.551-0.257-0.797-0.084c-0.25,0.175-0.291,0.493-0.096,0.713l1.891,2.135l3.77-4.604
						C45.311,43.386,45.258,43.068,45.004,42.903z"/>
					<path fill="#AFC736" d="M45.004,50.434c-0.256-0.164-0.613-0.113-0.798,0.112l-2.886,3.521l-0.963-1.083
						c-0.191-0.221-0.551-0.256-0.797-0.084c-0.25,0.175-0.291,0.493-0.096,0.713l1.891,2.134l3.77-4.604
						C45.311,50.916,45.258,50.6,45.004,50.434z"/>
					<path fill="#AFC736" d="M45.004,57.963c-0.256-0.164-0.613-0.113-0.798,0.112l-2.886,3.521l-0.963-1.083
						c-0.191-0.221-0.551-0.256-0.797-0.084c-0.25,0.175-0.291,0.493-0.096,0.713l1.891,2.134l3.77-4.604
						C45.311,58.445,45.258,58.129,45.004,57.963z"/>
					<path fill="#AFC736" d="M45.004,80.553c-0.256-0.164-0.613-0.113-0.798,0.113l-2.886,3.521l-0.963-1.083
						c-0.191-0.221-0.551-0.258-0.797-0.086c-0.25,0.175-0.291,0.495-0.096,0.714l1.891,2.134l3.77-4.604
						C45.311,81.035,45.258,80.719,45.004,80.553z"/>
					<path fill="#AFC736" d="M45.004,88.084c-0.256-0.166-0.613-0.115-0.798,0.112l-2.886,3.522l-0.963-1.084
						c-0.191-0.223-0.551-0.257-0.797-0.086c-0.25,0.176-0.291,0.496-0.096,0.714l1.891,2.134l3.77-4.604
						C45.311,88.564,45.258,88.249,45.004,88.084z"/>
					<path fill="#AFC736" d="M45.004,95.613c-0.256-0.166-0.613-0.115-0.798,0.112l-2.886,3.522l-0.963-1.084
						c-0.191-0.223-0.551-0.257-0.797-0.086c-0.25,0.176-0.291,0.496-0.096,0.714l1.891,2.134l3.77-4.604
						C45.311,96.094,45.258,95.778,45.004,95.613z"/>
					<line fill="#AFC736" x1="43.059" y1="60.007" x2="43.049" y2="59.997"/>
					<g>
						<g>
							<path fill="#EC1C24" d="M39.879,77.844c-0.141,0-0.278-0.054-0.385-0.163c-0.215-0.213-0.215-0.555,0-0.771l3.33-3.328
								c0.213-0.215,0.559-0.215,0.773,0c0.212,0.211,0.212,0.556,0,0.77l-3.333,3.33C40.155,77.79,40.02,77.844,39.879,77.844z"/>
						</g>
						<g>
							<path fill="#EC1C24" d="M43.211,77.844c0.141,0,0.277-0.054,0.385-0.163c0.214-0.213,0.214-0.555,0-0.771l-3.331-3.329
								c-0.213-0.215-0.559-0.215-0.772,0c-0.213,0.211-0.213,0.556,0,0.77l3.332,3.33C42.933,77.79,43.068,77.844,43.211,77.844z"
								/>
						</g>
					</g>
					<g>
						<g>
							<path fill="#EC1C24" d="M39.879,70.313c-0.141,0-0.278-0.052-0.385-0.162c-0.215-0.213-0.215-0.556,0-0.771l3.33-3.33
								c0.213-0.215,0.559-0.215,0.773,0c0.212,0.213,0.212,0.557,0,0.771l-3.333,3.33C40.155,70.262,40.02,70.313,39.879,70.313z"
								/>
						</g>
						<g>
							<path fill="#EC1C24" d="M43.211,70.313c0.141,0,0.277-0.052,0.385-0.162c0.214-0.213,0.214-0.556,0-0.769l-3.331-3.332
								c-0.213-0.215-0.559-0.215-0.772,0c-0.213,0.213-0.213,0.557,0,0.771l3.332,3.33C42.933,70.262,43.068,70.313,43.211,70.313z
								"/>
						</g>
					</g>
				</g>
			</g>
			<g>
				<g opacity="0.2">
					<path fill="#231F20" d="M93.616,24.026v9l-52.454,0.001v-9.001c0-1.699,1.388-3.087,3.086-3.087h20.069
						c-0.019,0.092-0.019,0.184-0.019,0.278c0,1.759,1.348,3.188,3.003,3.188c1.657,0,3.003-1.43,3.003-3.188
						c0-0.095,0-0.187-0.02-0.278H90.53C92.227,20.939,93.616,22.327,93.616,24.026z"/>
					<path fill="#231F20" d="M75.438,20.939c-0.134-4.464-3.733-8.064-8.137-8.064c-4.405,0-8.003,3.601-8.138,8.064
						c-0.011,0.092-0.011,0.186-0.011,0.278c0,4.599,3.652,8.332,8.148,8.331c4.494,0,8.147-3.732,8.147-8.331
						C75.449,21.123,75.449,21.031,75.438,20.939z M67.302,24.406c-1.655,0-3.003-1.43-3.003-3.188c0-0.095,0-0.187,0.019-0.278
						c0.124-1.626,1.41-2.921,2.984-2.921s2.859,1.295,2.983,2.921c0.02,0.092,0.02,0.184,0.02,0.278
						C70.305,22.977,68.959,24.406,67.302,24.406z"/>
				</g>
				<g>
					<g>
						<linearGradient id="SVGID_15_" gradientUnits="userSpaceOnUse" x1="67.3892" y1="18.9395" x2="67.3892" y2="31.0273">
							<stop  offset="0" style="stop-color:#A6A8AB"/>
							<stop  offset="0.6485" style="stop-color:#9EA0A3"/>
							<stop  offset="1" style="stop-color:#808184"/>
						</linearGradient>
						<path fill="url(#SVGID_15_)" d="M93.616,22.026v9l-52.454,0.001v-9.001c0-1.699,1.388-3.087,3.086-3.087h20.069
							c-0.019,0.092-0.019,0.184-0.019,0.278c0,1.759,1.348,3.188,3.003,3.188c1.657,0,3.003-1.43,3.003-3.188
							c0-0.095,0-0.187-0.02-0.278H90.53C92.227,18.939,93.616,20.327,93.616,22.026z"/>
						<g>
							<linearGradient id="SVGID_16_" gradientUnits="userSpaceOnUse" x1="67.3013" y1="27.5488" x2="67.3013" y2="10.875">
								<stop  offset="0" style="stop-color:#A6A8AB"/>
								<stop  offset="0.4848" style="stop-color:#989A9D"/>
								<stop  offset="1" style="stop-color:#808184"/>
							</linearGradient>
							<path fill="url(#SVGID_16_)" d="M75.438,18.939c-0.134-4.464-3.733-8.064-8.137-8.064c-4.405,0-8.003,3.601-8.138,8.064
								c-0.011,0.092-0.011,0.186-0.011,0.278c0,4.599,3.652,8.332,8.148,8.331c4.494,0,8.147-3.732,8.147-8.331
								C75.449,19.123,75.449,19.031,75.438,18.939z M67.302,22.406c-1.655,0-3.003-1.43-3.003-3.188c0-0.095,0-0.187,0.019-0.278
								c0.124-1.626,1.41-2.921,2.984-2.921s2.859,1.295,2.983,2.921c0.02,0.092,0.02,0.184,0.02,0.278
								C70.305,20.977,68.959,22.406,67.302,22.406z"/>
						</g>
					</g>
				</g>
			</g>
			<g display="none">
				<g display="inline">
					<g>
						<path fill="#6F92C5" d="M124.586,59.558c0,0.55-0.45,1-1,1l-37.004,0.001c-0.55,0-1-0.45-1-1V38.325c0-0.55,0.45-1,1-1h37.004
							c0.55,0,1,0.45,1,1V59.558z"/>
					</g>
					<polygon fill="#6F92C5" points="89.225,66.9 89.225,59.528 94.541,59.528 					"/>
				</g>
				<g display="inline">
					<circle fill="#FFFFFF" cx="93.035" cy="48.932" r="2.128"/>
					<circle fill="#FFFFFF" cx="99.16" cy="48.932" r="2.128"/>
					<path fill="#FFFFFF" d="M105.287,46.804c-1.174,0-2.13,0.955-2.13,2.129s0.956,2.128,2.13,2.128
						c1.172,0,2.127-0.954,2.127-2.128S106.459,46.804,105.287,46.804z"/>
					<circle fill="#FFFFFF" cx="111.411" cy="48.932" r="2.128"/>
					<path fill="#FFFFFF" d="M117.535,46.804c-1.172,0-2.127,0.955-2.127,2.13c0,1.173,0.955,2.127,2.127,2.127
						c1.174,0,2.129-0.954,2.129-2.127C119.664,47.759,118.709,46.804,117.535,46.804z"/>
				</g>
			</g>
		</g>
		<g>
			<g>
				
					<linearGradient id="SVGID_17_" gradientUnits="userSpaceOnUse" x1="2824.1982" y1="68.9277" x2="2847.2522" y2="56.2403" gradientTransform="matrix(-1 0 0 1 2913.7793 0)">
					<stop  offset="0" style="stop-color:#00B1CC"/>
					<stop  offset="0.522" style="stop-color:#3A54A4"/>
					<stop  offset="0.956" style="stop-color:#263470"/>
				</linearGradient>
				<polygon fill="url(#SVGID_17_)" points="68.331,63.396 84.072,75.089 89.813,59.86 				"/>
				
					<linearGradient id="SVGID_18_" gradientUnits="userSpaceOnUse" x1="2843.0039" y1="36.6475" x2="2787.3882" y2="61.6981" gradientTransform="matrix(-1 0 0 1 2913.7793 0)">
					<stop  offset="0" style="stop-color:#00B1CC"/>
					<stop  offset="0.8681" style="stop-color:#3A54A4"/>
				</linearGradient>
				<polygon fill="url(#SVGID_18_)" points="68.331,35.932 128.018,34.584 114.899,63.396 68.331,63.396 				"/>
				
					<linearGradient id="SVGID_19_" gradientUnits="userSpaceOnUse" x1="2799.8887" y1="44.0933" x2="2791.3933" y2="48.2997" gradientTransform="matrix(-1 0 0 1 2913.7793 0)">
					<stop  offset="0" style="stop-color:#00B1CC"/>
					<stop  offset="0.8681" style="stop-color:#3A54A4"/>
				</linearGradient>
				<polygon fill="url(#SVGID_19_)" points="128.018,34.459 114.899,63.272 108.013,57.809 121.13,28.997 				"/>
			</g>
			<g>
				<circle fill="#FFFFFF" cx="78.036" cy="49.06" r="2.128"/>
				<circle fill="#FFFFFF" cx="84.161" cy="49.06" r="2.128"/>
				<path fill="#FFFFFF" d="M90.288,46.932c-1.174,0-2.13,0.955-2.13,2.129s0.956,2.128,2.13,2.128c1.172,0,2.127-0.954,2.127-2.128
					S91.46,46.932,90.288,46.932z"/>
				<circle fill="#FFFFFF" cx="96.412" cy="49.06" r="2.128"/>
				<path fill="#FFFFFF" d="M102.536,46.932c-1.172,0-2.127,0.955-2.127,2.13c0,1.173,0.955,2.127,2.127,2.127
					c1.174,0,2.129-0.954,2.129-2.127C104.665,47.887,103.71,46.932,102.536,46.932z"/>
			</g>
		</g>
	</g>
</g>
</svg>
