<svg xmlns="http://www.w3.org/2000/svg" xmlns:xlink="http://www.w3.org/1999/xlink" width="380.88" height="42.52" viewBox="0 0 380.88 42.52"><defs><style>.a{fill:#fff;}.b{fill:url(#a);}</style><linearGradient id="a" x1="0.614" y1="0.609" x2="-0.365" y2="-0.348" gradientUnits="objectBoundingBox"><stop offset="0" stop-color="#fff"/><stop offset="1" stop-color="#fff" stop-opacity="0"/></linearGradient></defs><g transform="translate(-88 -112.52)"><path class="a" d="M10.363-12.441a8.276,8.276,0,0,0,1.5,4.129q2.051,2.488,7.027,2.488a14.831,14.831,0,0,0,4.84-.656q3.527-1.258,3.527-4.676a3.45,3.45,0,0,0-1.75-3.09,18.818,18.818,0,0,0-5.5-1.887L15.75-17.09q-6.289-1.422-8.7-3.09Q2.98-22.969,2.98-28.9a11.648,11.648,0,0,1,3.938-9q3.938-3.582,11.566-3.582A17.586,17.586,0,0,1,29.354-38.1q4.5,3.377,4.717,9.8H25.977A5.782,5.782,0,0,0,22.8-33.469,10.638,10.638,0,0,0,17.91-34.48a9.138,9.138,0,0,0-5.2,1.313A4.18,4.18,0,0,0,10.773-29.5a3.468,3.468,0,0,0,1.914,3.227,23.43,23.43,0,0,0,5.25,1.668l6.945,1.668a17.956,17.956,0,0,1,6.891,2.926q3.609,2.844,3.609,8.23a11.615,11.615,0,0,1-4.225,9.174q-4.225,3.65-11.936,3.65-7.875,0-12.387-3.6a11.949,11.949,0,0,1-4.512-9.885Zm43.5-11.73a5.293,5.293,0,0,0-4.2,1.7A8.462,8.462,0,0,0,47.8-17.883H59.909a6.784,6.784,0,0,0-1.873-4.689A5.816,5.816,0,0,0,53.866-24.172Zm0-6.426a15.62,15.62,0,0,1,6.7,1.395,11.735,11.735,0,0,1,4.922,4.4,15.02,15.02,0,0,1,2.27,6.152A39.732,39.732,0,0,1,68-12.742H47.6q.164,4.484,2.816,6.289A6.634,6.634,0,0,0,54.3-5.332,5.588,5.588,0,0,0,58.214-6.7,6.494,6.494,0,0,0,59.663-8.75H67.62a9.886,9.886,0,0,1-2.762,5.387Q61.03.984,54.14.984A15.115,15.115,0,0,1,44.1-2.68Q39.757-6.344,39.757-14.6q0-7.738,3.924-11.867A13.416,13.416,0,0,1,53.866-30.6Zm36.694.082q.219,0,.369.014t.67.041v7.984q-.738-.082-1.312-.109t-.93-.027q-4.7,0-6.316,3.063a11.914,11.914,0,0,0-.9,5.3V0H74.291V-29.8h7.438v5.2a16.476,16.476,0,0,1,3.145-4.074A8.56,8.56,0,0,1,90.56-30.516Zm25.1.711h8.367L113.282,0h-8.23L94.36-29.8h8.75L109.317-7.82Zm21.9-3.555h-7.9v-7.191h7.9Zm-7.9,3.555h7.9V0h-7.9Zm14.874,6.344V-29.8h24.172v6.48L153.584-6.4h15.641V0h-25.73V-6.07L158.78-23.461Zm38.827-9.9h-7.9v-7.191h7.9Zm-7.9,3.555h7.9V0h-7.9ZM203.959.784a15.1,15.1,0,0,1-5.236-1.008,11.727,11.727,0,0,1-4.256-2.856,13.71,13.71,0,0,1-2.884-4.76,19.052,19.052,0,0,1-1.064-6.664,20.47,20.47,0,0,1,.84-5.964,14.082,14.082,0,0,1,2.52-4.844,11.96,11.96,0,0,1,4.2-3.276,13.5,13.5,0,0,1,5.88-1.2,13.64,13.64,0,0,1,5.936,1.2,12.106,12.106,0,0,1,4.2,3.248,13.406,13.406,0,0,1,2.492,4.844A21.421,21.421,0,0,1,217.4-14.5a19.408,19.408,0,0,1-.952,6.272,14.12,14.12,0,0,1-2.716,4.816,11.96,11.96,0,0,1-4.256,3.108A13.6,13.6,0,0,1,203.959.784ZM213.815-14.5a19.811,19.811,0,0,0-.56-4.816,11.409,11.409,0,0,0-1.736-3.892,8.339,8.339,0,0,0-3.024-2.6,9.822,9.822,0,0,0-4.536-.952,9.2,9.2,0,0,0-4.508,1.036,8.823,8.823,0,0,0-3.052,2.744,12.066,12.066,0,0,0-1.736,3.92,18.524,18.524,0,0,0-.56,4.564,18.094,18.094,0,0,0,.644,4.956,11.618,11.618,0,0,0,1.876,3.892,8.424,8.424,0,0,0,3.08,2.52,9.641,9.641,0,0,0,4.256.9,9.2,9.2,0,0,0,4.508-1.036,8.719,8.719,0,0,0,3.052-2.772,12.43,12.43,0,0,0,1.736-3.92A18.191,18.191,0,0,0,213.815-14.5ZM228.039,0h-3.36V-29.008h3.36v4.032a21.34,21.34,0,0,1,4.172-3.472,9.6,9.6,0,0,1,5.18-1.344,13.226,13.226,0,0,1,4.984.924,8.5,8.5,0,0,1,3.864,3.22,7.222,7.222,0,0,1,1.26,3.22,29.234,29.234,0,0,1,.2,3.444V0h-3.36V-18.928q0-3.92-1.736-5.88t-5.768-1.96a8.185,8.185,0,0,0-2.856.476,8.987,8.987,0,0,0-2.324,1.26,8.44,8.44,0,0,0-1.764,1.792,8.316,8.316,0,0,0-1.12,2.128,10.68,10.68,0,0,0-.616,2.688q-.112,1.288-.112,2.8Zm29.4,0V-40.32h3.36V0Zm13.552,0V-29.008h3.36V0Zm-.168-35.336V-40.32h3.7v4.984ZM287.4,0h-3.36V-29.008h3.36v4.032a21.339,21.339,0,0,1,4.172-3.472,9.6,9.6,0,0,1,5.18-1.344,13.226,13.226,0,0,1,4.984.924,8.5,8.5,0,0,1,3.864,3.22,7.222,7.222,0,0,1,1.26,3.22,29.231,29.231,0,0,1,.2,3.444V0h-3.36V-18.928q0-3.92-1.736-5.88t-5.768-1.96a8.185,8.185,0,0,0-2.856.476,8.987,8.987,0,0,0-2.324,1.26,8.44,8.44,0,0,0-1.764,1.792,8.316,8.316,0,0,0-1.12,2.128,10.68,10.68,0,0,0-.616,2.688q-.112,1.288-.112,2.8Zm49.9-16.52a13.315,13.315,0,0,0-.588-4,9.358,9.358,0,0,0-1.736-3.248,8.263,8.263,0,0,0-2.884-2.184,9.282,9.282,0,0,0-3.976-.812,8.839,8.839,0,0,0-3.948.84,9.077,9.077,0,0,0-2.912,2.24,11.266,11.266,0,0,0-1.932,3.248,15.06,15.06,0,0,0-.952,3.92Zm-18.928,2.8a15.74,15.74,0,0,0,.616,4.452,10.755,10.755,0,0,0,1.82,3.64,8.812,8.812,0,0,0,3.052,2.464,9.4,9.4,0,0,0,4.256.924,9.259,9.259,0,0,0,5.656-1.736A8.361,8.361,0,0,0,336.9-8.9h3.752a18.092,18.092,0,0,1-1.624,3.836,11.836,11.836,0,0,1-2.52,3.08A10.891,10.891,0,0,1,332.927.056a14.517,14.517,0,0,1-4.816.728,14.062,14.062,0,0,1-5.992-1.176,11.3,11.3,0,0,1-4.144-3.22,13.587,13.587,0,0,1-2.408-4.816,21.833,21.833,0,0,1-.784-5.964,19,19,0,0,1,.924-5.992,15.258,15.258,0,0,1,2.632-4.9,12.232,12.232,0,0,1,4.172-3.3,12.593,12.593,0,0,1,5.6-1.2,11.565,11.565,0,0,1,9.408,4.116q3.416,4.116,3.36,11.956Z" transform="translate(128 154)"/><path class="b" d="M-12,16a4,4,0,0,1,4-4,4,4,0,0,1,4,4,4,4,0,0,1-4,4A4,4,0,0,1-12,16ZM0,4A4,4,0,1,1,4,8,4,4,0,0,1,0,4ZM-12,4A4,4,0,0,1-8,0,4,4,0,0,1-4,4,4,4,0,0,1-8,8,4,4,0,0,1-12,4ZM12-8a4,4,0,0,1,4-4,4,4,0,0,1,4,4,4,4,0,0,1-4,4A4,4,0,0,1,12-8ZM0-8a4,4,0,0,1,4-4A4,4,0,0,1,8-8,4,4,0,0,1,4-4,4,4,0,0,1,0-8ZM-12-8a4,4,0,0,1,4-4A4,4,0,0,1-4-8,4,4,0,0,1-8-4,4,4,0,0,1-12-8Z" transform="translate(108 138.967) rotate(180)"/></g></svg>