<?xml version="1.0" encoding="utf-8"?>
<!-- Generator: Adobe Illustrator 15.0.0, SVG Export Plug-In . SVG Version: 6.00 Build 0)  -->
<!DOCTYPE svg PUBLIC "-//W3C//DTD SVG 1.1//EN" "http://www.w3.org/Graphics/SVG/1.1/DTD/svg11.dtd">
<svg version="1.1" id="Livello_1" xmlns="http://www.w3.org/2000/svg" xmlns:xlink="http://www.w3.org/1999/xlink" x="0px" y="0px"
	 width="85px" height="85px" viewBox="0 0 85 85" enable-background="new 0 0 85 85" xml:space="preserve">
<g>
	<g>
		<path fill="#701F15" d="M78.411,74.744c0,2.199-1.8,4-4,4H10.589c-2.2,0-4-1.801-4-4v-31.51c0-2.199,1.384-5.15,3.075-6.559
			L39.57,11.793c1.691-1.407,4.454-1.402,6.139,0.012l29.639,24.858c1.686,1.414,3.063,4.371,3.063,6.571V74.744z"/>
	</g>
	<g>
		<path fill="#701F15" d="M78.411,76.994c0,0.55-0.45,1-1,1H7.589c-0.55,0-1-0.45-1-1V39.485c0-0.55,0.407-1.192,0.904-1.426
			L41.74,21.911c0.497-0.234,1.311-0.233,1.808,0.003l33.96,16.142c0.497,0.236,0.903,0.879,0.903,1.429V76.994z"/>
	</g>
	<g>
		<g>
			<g>
				<path fill="#FFFFFF" d="M74.984,66.234c0,1.1-0.899,2-2,2h-60.97c-1.1,0-2-0.9-2-2V17.551c0-1.1,0.9-2,2-2h60.972
					c1.1,0,2,0.9,2,2v48.684H74.984z"/>
			</g>
			<path fill="#E4E4E4" d="M72.984,15.551h-60.97c-1.101,0-2,0.9-2,2v13.684h64.972V17.551
				C74.984,16.452,74.085,15.551,72.984,15.551z"/>
		</g>
		<g>
			<line fill="none" stroke="#A6A8AB" stroke-miterlimit="10" x1="15.15" y1="21.376" x2="31.569" y2="21.376"/>
			<line fill="none" stroke="#A6A8AB" stroke-miterlimit="10" x1="15.15" y1="25.808" x2="24.317" y2="25.808"/>
			<line fill="none" stroke="#D0D2D3" stroke-miterlimit="10" x1="15.15" y1="36.184" x2="70.855" y2="36.184"/>
			
				<line fill="none" stroke="#D0D2D3" stroke-width="0.7535" stroke-miterlimit="10" x1="15.15" y1="40.434" x2="46.779" y2="40.434"/>
			<line fill="none" stroke="#D0D2D3" stroke-miterlimit="10" x1="15.15" y1="44.684" x2="70.855" y2="44.684"/>
			<line fill="none" stroke="#D0D2D3" stroke-miterlimit="10" x1="15.15" y1="53.184" x2="70.855" y2="53.184"/>
			<line fill="none" stroke="#D0D2D3" stroke-miterlimit="10" x1="15.15" y1="48.934" x2="70.855" y2="48.934"/>
		</g>
	</g>
	<g>
		<g>
			<path fill="#BF3B2B" d="M8.31,78.747c-0.947,0.562-0.821,1.019,0.279,1.019h67.822c1.1,0,2-0.899,2-2v-38.51
				c0-1.1-0.774-1.542-1.722-0.981L8.31,78.747z"/>
		</g>
		<g>
			<path fill="#E54C3C" d="M76.689,78.747c0.946,0.562,0.82,1.019-0.278,1.019H8.589c-1.1,0-2-0.899-2-2v-38.51
				c0-1.1,0.774-1.542,1.721-0.981L76.689,78.747z"/>
		</g>
	</g>
</g>
<g display="none">
	<g display="inline">
		<path fill="#701F15" d="M78.411,74.586c0,2.2-1.8,4-4,4H10.589c-2.2,0-4-1.8-4-4v-31.51c0-2.2,1.384-5.151,3.075-6.558
			L39.57,11.635c1.691-1.407,4.454-1.402,6.139,0.012l29.638,24.858c1.686,1.414,3.064,4.371,3.064,6.57V74.586z"/>
	</g>
	<g display="inline">
		<path fill="#701F15" d="M78.411,76.836c0,0.55-0.45,1-1,1H7.589c-0.55,0-1-0.45-1-1V39.327c0-0.55,0.407-1.192,0.904-1.426
			L41.74,21.753c0.497-0.234,1.311-0.233,1.808,0.003l33.96,16.142c0.497,0.236,0.903,0.879,0.903,1.429V76.836z"/>
	</g>
	<g display="inline">
		<g>
			<g>
				<path fill="#FFFFFF" d="M74.985,56.076c0,1.1-0.9,2-2,2H12.014c-1.1,0-2-0.9-2-2V7.393c0-1.1,0.9-2,2-2h60.972c1.1,0,2,0.9,2,2
					V56.076z"/>
			</g>
			<path fill="#E4E4E4" d="M72.985,5.393H12.014c-1.101,0-2,0.9-2,2v13.684h64.972V7.393C74.985,6.293,74.085,5.393,72.985,5.393z"
				/>
		</g>
		<g>
			<line fill="none" stroke="#A6A8AB" stroke-miterlimit="10" x1="15.15" y1="11.218" x2="31.569" y2="11.218"/>
			<line fill="none" stroke="#A6A8AB" stroke-miterlimit="10" x1="15.15" y1="15.65" x2="24.317" y2="15.65"/>
			<line fill="none" stroke="#D0D2D3" stroke-miterlimit="10" x1="15.15" y1="26.026" x2="70.855" y2="26.026"/>
			
				<line fill="none" stroke="#D0D2D3" stroke-width="0.7535" stroke-miterlimit="10" x1="15.15" y1="30.276" x2="46.78" y2="30.276"/>
			<line fill="none" stroke="#D0D2D3" stroke-miterlimit="10" x1="15.15" y1="34.526" x2="70.855" y2="34.526"/>
			<line fill="none" stroke="#D0D2D3" stroke-miterlimit="10" x1="15.15" y1="43.025" x2="70.855" y2="43.025"/>
			<line fill="none" stroke="#D0D2D3" stroke-miterlimit="10" x1="15.15" y1="38.776" x2="70.855" y2="38.776"/>
		</g>
		<g>
			<line fill="none" stroke="#D0D2D3" stroke-miterlimit="10" x1="15.15" y1="48.334" x2="70.855" y2="48.334"/>
			
				<line fill="none" stroke="#D0D2D3" stroke-width="0.7535" stroke-miterlimit="10" x1="15.15" y1="52.584" x2="46.78" y2="52.584"/>
			<line fill="none" stroke="#D0D2D3" stroke-miterlimit="10" x1="15.15" y1="56.834" x2="70.855" y2="56.834"/>
			<line fill="none" stroke="#D0D2D3" stroke-miterlimit="10" x1="15.15" y1="65.334" x2="70.855" y2="65.334"/>
			<line fill="none" stroke="#D0D2D3" stroke-miterlimit="10" x1="15.15" y1="61.084" x2="70.855" y2="61.084"/>
		</g>
	</g>
	<g display="inline">
		<g>
			<path fill="#BF3B2B" d="M8.31,78.589c-0.947,0.561-0.821,1.019,0.279,1.019h67.822c1.1,0,2-0.9,2-2V39.098
				c0-1.1-0.774-1.542-1.721-0.981L8.31,78.589z"/>
		</g>
		<g>
			<path fill="#E54C3C" d="M76.69,78.589c0.946,0.561,0.82,1.019-0.279,1.019H8.589c-1.1,0-2-0.9-2-2V39.098
				c0-1.1,0.774-1.542,1.721-0.981L76.69,78.589z"/>
		</g>
	</g>
</g>
</svg>
