<svg xmlns="http://www.w3.org/2000/svg" xmlns:xlink="http://www.w3.org/1999/xlink" width="1599.998" height="580" viewBox="0 0 1599.998 580"><defs><style>.a{fill:url(#a);}.b{fill:url(#b);}.c{fill:url(#c);}.d{fill:url(#d);}</style><linearGradient id="a" x1="0.006" x2="1" y2="1" gradientUnits="objectBoundingBox"><stop offset="0" stop-color="#e3000b"/><stop offset="0.372" stop-color="#960f2a"/><stop offset="0.698" stop-color="#1b3066"/><stop offset="1" stop-color="#003773"/></linearGradient><linearGradient id="b" x1="-0.026" y1="1.051" x2="1" gradientUnits="objectBoundingBox"><stop offset="0" stop-color="#fff" stop-opacity="0.4"/><stop offset="1" stop-color="#93a5ff" stop-opacity="0"/></linearGradient><linearGradient id="c" x1="0.02" y1="0" y2="1" xlink:href="#b"/><linearGradient id="d" x1="-0.026" y1="-0.051" y2="1" xlink:href="#b"/></defs><g transform="translate(-0.002)"><path class="a" d="M-19946.24-7735.623h1600v-580h-1600Z" transform="translate(19946.242 8315.623)"/><path class="b" d="M171.11,2.465A2.465,2.465,0,1,0,173.575,0,2.465,2.465,0,0,0,171.11,2.465Zm-19.012,0A2.465,2.465,0,1,0,154.562,0,2.465,2.465,0,0,0,152.1,2.465Zm-19.012,0A2.465,2.465,0,1,0,135.55,0,2.465,2.465,0,0,0,133.086,2.465Zm-19.012,0A2.465,2.465,0,1,0,116.538,0,2.465,2.465,0,0,0,114.073,2.465Zm-19.012,0A2.465,2.465,0,1,0,97.526,0,2.465,2.465,0,0,0,95.061,2.465Zm-19.012,0A2.465,2.465,0,1,0,78.513,0,2.465,2.465,0,0,0,76.049,2.465Zm-19.012,0A2.465,2.465,0,1,0,59.5,0,2.465,2.465,0,0,0,57.037,2.465Zm-19.012,0A2.465,2.465,0,1,0,40.489,0,2.465,2.465,0,0,0,38.024,2.465Zm-19.012,0A2.465,2.465,0,1,0,21.477,0,2.465,2.465,0,0,0,19.012,2.465ZM0,2.465A2.465,2.465,0,1,0,2.465,0,2.465,2.465,0,0,0,0,2.465ZM171.11,21.477a2.465,2.465,0,1,0,2.465-2.465A2.465,2.465,0,0,0,171.11,21.477Zm-19.012,0a2.465,2.465,0,1,0,2.465-2.465A2.465,2.465,0,0,0,152.1,21.477Zm-19.012,0a2.465,2.465,0,1,0,2.465-2.465A2.465,2.465,0,0,0,133.086,21.477Zm-19.012,0a2.465,2.465,0,1,0,2.465-2.465A2.465,2.465,0,0,0,114.073,21.477Zm-19.012,0a2.465,2.465,0,1,0,2.465-2.465A2.465,2.465,0,0,0,95.061,21.477Zm-19.012,0a2.465,2.465,0,1,0,2.465-2.465A2.465,2.465,0,0,0,76.049,21.477Zm-19.012,0A2.465,2.465,0,1,0,59.5,19.012,2.465,2.465,0,0,0,57.037,21.477Zm-19.012,0a2.465,2.465,0,1,0,2.465-2.465A2.465,2.465,0,0,0,38.024,21.477Zm-19.012,0a2.465,2.465,0,1,0,2.465-2.465A2.465,2.465,0,0,0,19.012,21.477ZM0,21.477a2.465,2.465,0,1,0,2.465-2.465A2.465,2.465,0,0,0,0,21.477ZM171.11,40.489a2.465,2.465,0,1,0,2.465-2.465A2.465,2.465,0,0,0,171.11,40.489Zm-19.012,0a2.465,2.465,0,1,0,2.465-2.465A2.465,2.465,0,0,0,152.1,40.489Zm-19.012,0a2.465,2.465,0,1,0,2.465-2.465A2.465,2.465,0,0,0,133.086,40.489Zm-19.012,0a2.465,2.465,0,1,0,2.465-2.465A2.465,2.465,0,0,0,114.073,40.489Zm-19.012,0a2.465,2.465,0,1,0,2.465-2.465A2.465,2.465,0,0,0,95.061,40.489Zm-19.012,0a2.465,2.465,0,1,0,2.465-2.465A2.465,2.465,0,0,0,76.049,40.489Zm-19.012,0A2.465,2.465,0,1,0,59.5,38.024,2.465,2.465,0,0,0,57.037,40.489Zm-19.012,0a2.465,2.465,0,1,0,2.465-2.465A2.465,2.465,0,0,0,38.024,40.489Zm-19.012,0a2.465,2.465,0,1,0,2.465-2.465A2.465,2.465,0,0,0,19.012,40.489ZM0,40.489a2.465,2.465,0,1,0,2.465-2.465A2.465,2.465,0,0,0,0,40.489ZM171.11,59.5a2.465,2.465,0,1,0,2.465-2.465A2.465,2.465,0,0,0,171.11,59.5Zm-19.012,0a2.465,2.465,0,1,0,2.465-2.465A2.465,2.465,0,0,0,152.1,59.5Zm-19.012,0a2.465,2.465,0,1,0,2.465-2.465A2.465,2.465,0,0,0,133.086,59.5Zm-19.012,0a2.465,2.465,0,1,0,2.465-2.465A2.465,2.465,0,0,0,114.073,59.5Zm-19.012,0a2.465,2.465,0,1,0,2.465-2.465A2.465,2.465,0,0,0,95.061,59.5Zm-19.012,0a2.465,2.465,0,1,0,2.465-2.465A2.465,2.465,0,0,0,76.049,59.5Zm-19.012,0A2.465,2.465,0,1,0,59.5,57.037,2.465,2.465,0,0,0,57.037,59.5Zm-19.012,0a2.465,2.465,0,1,0,2.465-2.465A2.465,2.465,0,0,0,38.024,59.5Zm-19.012,0a2.465,2.465,0,1,0,2.465-2.465A2.465,2.465,0,0,0,19.012,59.5ZM0,59.5a2.465,2.465,0,1,0,2.465-2.465A2.465,2.465,0,0,0,0,59.5ZM171.11,78.513a2.465,2.465,0,1,0,2.465-2.465A2.465,2.465,0,0,0,171.11,78.513Zm-19.012,0a2.465,2.465,0,1,0,2.465-2.465A2.465,2.465,0,0,0,152.1,78.513Zm-19.012,0a2.465,2.465,0,1,0,2.465-2.465A2.465,2.465,0,0,0,133.086,78.513Zm-19.012,0a2.465,2.465,0,1,0,2.465-2.465A2.465,2.465,0,0,0,114.073,78.513Zm-19.012,0a2.465,2.465,0,1,0,2.465-2.465A2.465,2.465,0,0,0,95.061,78.513Zm-19.012,0a2.465,2.465,0,1,0,2.465-2.465A2.465,2.465,0,0,0,76.049,78.513Zm-19.012,0A2.465,2.465,0,1,0,59.5,76.049,2.465,2.465,0,0,0,57.037,78.513Zm-19.012,0a2.465,2.465,0,1,0,2.465-2.465A2.465,2.465,0,0,0,38.024,78.513Zm-19.012,0a2.465,2.465,0,1,0,2.465-2.465A2.465,2.465,0,0,0,19.012,78.513ZM0,78.513a2.465,2.465,0,1,0,2.465-2.465A2.465,2.465,0,0,0,0,78.513ZM171.11,97.526a2.465,2.465,0,1,0,2.465-2.465A2.465,2.465,0,0,0,171.11,97.526Zm-19.012,0a2.465,2.465,0,1,0,2.465-2.465A2.465,2.465,0,0,0,152.1,97.526Zm-19.012,0a2.465,2.465,0,1,0,2.465-2.465A2.465,2.465,0,0,0,133.086,97.526Zm-19.012,0a2.465,2.465,0,1,0,2.465-2.465A2.465,2.465,0,0,0,114.073,97.526Zm-19.012,0a2.465,2.465,0,1,0,2.465-2.465A2.465,2.465,0,0,0,95.061,97.526Zm-19.012,0a2.465,2.465,0,1,0,2.465-2.465A2.465,2.465,0,0,0,76.049,97.526Zm-19.012,0A2.465,2.465,0,1,0,59.5,95.061,2.465,2.465,0,0,0,57.037,97.526Zm-19.012,0a2.465,2.465,0,1,0,2.465-2.465A2.465,2.465,0,0,0,38.024,97.526Zm-19.012,0a2.465,2.465,0,1,0,2.465-2.465A2.465,2.465,0,0,0,19.012,97.526ZM0,97.526a2.465,2.465,0,1,0,2.465-2.465A2.465,2.465,0,0,0,0,97.526Zm171.11,19.012a2.465,2.465,0,1,0,2.465-2.465A2.465,2.465,0,0,0,171.11,116.538Zm-19.012,0a2.465,2.465,0,1,0,2.465-2.465A2.465,2.465,0,0,0,152.1,116.538Zm-19.012,0a2.465,2.465,0,1,0,2.465-2.465A2.465,2.465,0,0,0,133.086,116.538Zm-19.012,0a2.465,2.465,0,1,0,2.465-2.465A2.465,2.465,0,0,0,114.073,116.538Zm-19.012,0a2.465,2.465,0,1,0,2.465-2.465A2.465,2.465,0,0,0,95.061,116.538Zm-19.012,0a2.465,2.465,0,1,0,2.465-2.465A2.465,2.465,0,0,0,76.049,116.538Zm-19.012,0a2.465,2.465,0,1,0,2.465-2.465A2.465,2.465,0,0,0,57.037,116.538Zm-19.012,0a2.465,2.465,0,1,0,2.465-2.465A2.465,2.465,0,0,0,38.024,116.538Zm-19.012,0a2.465,2.465,0,1,0,2.465-2.465A2.465,2.465,0,0,0,19.012,116.538ZM0,116.538a2.465,2.465,0,1,0,2.465-2.465A2.465,2.465,0,0,0,0,116.538ZM171.11,135.55a2.465,2.465,0,1,0,2.465-2.465A2.465,2.465,0,0,0,171.11,135.55Zm-19.012,0a2.465,2.465,0,1,0,2.465-2.465A2.465,2.465,0,0,0,152.1,135.55Zm-19.012,0a2.465,2.465,0,1,0,2.465-2.465A2.465,2.465,0,0,0,133.086,135.55Zm-19.012,0a2.465,2.465,0,1,0,2.465-2.465A2.465,2.465,0,0,0,114.073,135.55Zm-19.012,0a2.465,2.465,0,1,0,2.465-2.465A2.465,2.465,0,0,0,95.061,135.55Zm-19.012,0a2.465,2.465,0,1,0,2.465-2.465A2.465,2.465,0,0,0,76.049,135.55Zm-19.012,0a2.465,2.465,0,1,0,2.465-2.465A2.465,2.465,0,0,0,57.037,135.55Zm-19.012,0a2.465,2.465,0,1,0,2.465-2.465A2.465,2.465,0,0,0,38.024,135.55Zm-19.012,0a2.465,2.465,0,1,0,2.465-2.465A2.465,2.465,0,0,0,19.012,135.55ZM0,135.55a2.465,2.465,0,1,0,2.465-2.465A2.465,2.465,0,0,0,0,135.55Zm171.11,19.012a2.465,2.465,0,1,0,2.465-2.465A2.465,2.465,0,0,0,171.11,154.562Zm-19.012,0a2.465,2.465,0,1,0,2.465-2.465A2.465,2.465,0,0,0,152.1,154.562Zm-19.012,0a2.465,2.465,0,1,0,2.465-2.465A2.465,2.465,0,0,0,133.086,154.562Zm-19.012,0a2.465,2.465,0,1,0,2.465-2.465A2.465,2.465,0,0,0,114.073,154.562Zm-19.012,0a2.465,2.465,0,1,0,2.465-2.465A2.465,2.465,0,0,0,95.061,154.562Zm-19.012,0a2.465,2.465,0,1,0,2.465-2.465A2.465,2.465,0,0,0,76.049,154.562Zm-19.012,0A2.465,2.465,0,1,0,59.5,152.1,2.465,2.465,0,0,0,57.037,154.562Zm-19.012,0a2.465,2.465,0,1,0,2.465-2.465A2.465,2.465,0,0,0,38.024,154.562Zm-19.012,0a2.465,2.465,0,1,0,2.465-2.465A2.465,2.465,0,0,0,19.012,154.562ZM0,154.562A2.465,2.465,0,1,0,2.465,152.1,2.465,2.465,0,0,0,0,154.562Zm171.11,19.012a2.465,2.465,0,1,0,2.465-2.465A2.465,2.465,0,0,0,171.11,173.574Zm-19.012,0a2.465,2.465,0,1,0,2.465-2.465A2.465,2.465,0,0,0,152.1,173.574Zm-19.012,0a2.465,2.465,0,1,0,2.465-2.465A2.465,2.465,0,0,0,133.086,173.574Zm-19.012,0a2.465,2.465,0,1,0,2.465-2.465A2.465,2.465,0,0,0,114.073,173.574Zm-19.012,0a2.465,2.465,0,1,0,2.465-2.465A2.465,2.465,0,0,0,95.061,173.574Zm-19.012,0a2.465,2.465,0,1,0,2.465-2.465A2.465,2.465,0,0,0,76.049,173.574Zm-19.012,0A2.465,2.465,0,1,0,59.5,171.11,2.465,2.465,0,0,0,57.037,173.574Zm-19.012,0a2.465,2.465,0,1,0,2.465-2.465A2.465,2.465,0,0,0,38.024,173.574Zm-19.012,0a2.465,2.465,0,1,0,2.465-2.465A2.465,2.465,0,0,0,19.012,173.574ZM0,173.574a2.465,2.465,0,1,0,2.465-2.465A2.465,2.465,0,0,0,0,173.574Z" transform="translate(615.961 259.039) rotate(-90)"/><path class="c" d="M171.109,173.574a2.465,2.465,0,1,1,2.465,2.465A2.465,2.465,0,0,1,171.109,173.574Zm-19.012,0a2.465,2.465,0,1,1,2.465,2.465A2.465,2.465,0,0,1,152.1,173.574Zm-19.012,0a2.465,2.465,0,1,1,2.465,2.465A2.465,2.465,0,0,1,133.085,173.574Zm-19.012,0a2.465,2.465,0,1,1,2.465,2.465A2.465,2.465,0,0,1,114.073,173.574Zm-19.012,0a2.465,2.465,0,1,1,2.465,2.465A2.465,2.465,0,0,1,95.061,173.574Zm-19.012,0a2.465,2.465,0,1,1,2.465,2.465A2.465,2.465,0,0,1,76.048,173.574Zm-19.012,0a2.465,2.465,0,1,1,2.465,2.465A2.465,2.465,0,0,1,57.036,173.574Zm-19.012,0a2.465,2.465,0,1,1,2.465,2.465A2.465,2.465,0,0,1,38.024,173.574Zm-19.012,0a2.465,2.465,0,1,1,2.465,2.465A2.465,2.465,0,0,1,19.012,173.574ZM0,173.574a2.465,2.465,0,1,1,2.465,2.465A2.465,2.465,0,0,1,0,173.574Zm171.11-19.012a2.465,2.465,0,1,1,2.465,2.465A2.465,2.465,0,0,1,171.109,154.562Zm-19.012,0a2.465,2.465,0,1,1,2.465,2.465A2.465,2.465,0,0,1,152.1,154.562Zm-19.012,0a2.465,2.465,0,1,1,2.465,2.465A2.465,2.465,0,0,1,133.085,154.562Zm-19.012,0a2.465,2.465,0,1,1,2.465,2.465A2.465,2.465,0,0,1,114.073,154.562Zm-19.012,0a2.465,2.465,0,1,1,2.465,2.465A2.465,2.465,0,0,1,95.061,154.562Zm-19.012,0a2.465,2.465,0,1,1,2.465,2.465A2.465,2.465,0,0,1,76.048,154.562Zm-19.012,0a2.465,2.465,0,1,1,2.465,2.465A2.465,2.465,0,0,1,57.036,154.562Zm-19.012,0a2.465,2.465,0,1,1,2.465,2.465A2.465,2.465,0,0,1,38.024,154.562Zm-19.012,0a2.465,2.465,0,1,1,2.465,2.465A2.465,2.465,0,0,1,19.012,154.562ZM0,154.562a2.465,2.465,0,1,1,2.465,2.465A2.465,2.465,0,0,1,0,154.562Zm171.11-19.012a2.465,2.465,0,1,1,2.465,2.465A2.465,2.465,0,0,1,171.109,135.55Zm-19.012,0a2.465,2.465,0,1,1,2.465,2.465A2.465,2.465,0,0,1,152.1,135.55Zm-19.012,0a2.465,2.465,0,1,1,2.465,2.465A2.465,2.465,0,0,1,133.085,135.55Zm-19.012,0a2.465,2.465,0,1,1,2.465,2.465A2.465,2.465,0,0,1,114.073,135.55Zm-19.012,0a2.465,2.465,0,1,1,2.465,2.465A2.465,2.465,0,0,1,95.061,135.55Zm-19.012,0a2.465,2.465,0,1,1,2.465,2.465A2.465,2.465,0,0,1,76.048,135.55Zm-19.012,0a2.465,2.465,0,1,1,2.465,2.465A2.465,2.465,0,0,1,57.036,135.55Zm-19.012,0a2.465,2.465,0,1,1,2.465,2.465A2.465,2.465,0,0,1,38.024,135.55Zm-19.012,0a2.465,2.465,0,1,1,2.465,2.465A2.465,2.465,0,0,1,19.012,135.55ZM0,135.55a2.465,2.465,0,1,1,2.465,2.465A2.465,2.465,0,0,1,0,135.55Zm171.11-19.012A2.465,2.465,0,1,1,173.574,119,2.465,2.465,0,0,1,171.109,116.538Zm-19.012,0A2.465,2.465,0,1,1,154.562,119,2.465,2.465,0,0,1,152.1,116.538Zm-19.012,0A2.465,2.465,0,1,1,135.55,119,2.465,2.465,0,0,1,133.085,116.538Zm-19.012,0A2.465,2.465,0,1,1,116.538,119,2.465,2.465,0,0,1,114.073,116.538Zm-19.012,0A2.465,2.465,0,1,1,97.525,119,2.465,2.465,0,0,1,95.061,116.538Zm-19.012,0A2.465,2.465,0,1,1,78.513,119,2.465,2.465,0,0,1,76.048,116.538Zm-19.012,0A2.465,2.465,0,1,1,59.5,119,2.465,2.465,0,0,1,57.036,116.538Zm-19.012,0A2.465,2.465,0,1,1,40.489,119,2.465,2.465,0,0,1,38.024,116.538Zm-19.012,0A2.465,2.465,0,1,1,21.477,119,2.465,2.465,0,0,1,19.012,116.538ZM0,116.538A2.465,2.465,0,1,1,2.464,119,2.465,2.465,0,0,1,0,116.538Zm171.11-19.012a2.465,2.465,0,1,1,2.465,2.465A2.465,2.465,0,0,1,171.109,97.525Zm-19.012,0a2.465,2.465,0,1,1,2.465,2.465A2.465,2.465,0,0,1,152.1,97.525Zm-19.012,0a2.465,2.465,0,1,1,2.465,2.465A2.465,2.465,0,0,1,133.085,97.525Zm-19.012,0a2.465,2.465,0,1,1,2.465,2.465A2.465,2.465,0,0,1,114.073,97.525Zm-19.012,0a2.465,2.465,0,1,1,2.465,2.465A2.465,2.465,0,0,1,95.061,97.525Zm-19.012,0a2.465,2.465,0,1,1,2.465,2.465A2.465,2.465,0,0,1,76.048,97.525Zm-19.012,0A2.465,2.465,0,1,1,59.5,99.99,2.465,2.465,0,0,1,57.036,97.525Zm-19.012,0a2.465,2.465,0,1,1,2.465,2.465A2.465,2.465,0,0,1,38.024,97.525Zm-19.012,0a2.465,2.465,0,1,1,2.465,2.465A2.465,2.465,0,0,1,19.012,97.525ZM0,97.525A2.465,2.465,0,1,1,2.464,99.99,2.465,2.465,0,0,1,0,97.525Zm171.11-19.012a2.465,2.465,0,1,1,2.465,2.465A2.465,2.465,0,0,1,171.109,78.513Zm-19.012,0a2.465,2.465,0,1,1,2.465,2.465A2.465,2.465,0,0,1,152.1,78.513Zm-19.012,0a2.465,2.465,0,1,1,2.465,2.465A2.465,2.465,0,0,1,133.085,78.513Zm-19.012,0a2.465,2.465,0,1,1,2.465,2.465A2.465,2.465,0,0,1,114.073,78.513Zm-19.012,0a2.465,2.465,0,1,1,2.465,2.465A2.465,2.465,0,0,1,95.061,78.513Zm-19.012,0a2.465,2.465,0,1,1,2.465,2.465A2.465,2.465,0,0,1,76.048,78.513Zm-19.012,0A2.465,2.465,0,1,1,59.5,80.978,2.465,2.465,0,0,1,57.036,78.513Zm-19.012,0a2.465,2.465,0,1,1,2.465,2.465A2.465,2.465,0,0,1,38.024,78.513Zm-19.012,0a2.465,2.465,0,1,1,2.465,2.465A2.465,2.465,0,0,1,19.012,78.513ZM0,78.513a2.465,2.465,0,1,1,2.465,2.465A2.465,2.465,0,0,1,0,78.513ZM171.109,59.5a2.465,2.465,0,1,1,2.465,2.465A2.465,2.465,0,0,1,171.109,59.5Zm-19.012,0a2.465,2.465,0,1,1,2.465,2.465A2.465,2.465,0,0,1,152.1,59.5Zm-19.012,0a2.465,2.465,0,1,1,2.465,2.465A2.465,2.465,0,0,1,133.085,59.5Zm-19.012,0a2.465,2.465,0,1,1,2.465,2.465A2.465,2.465,0,0,1,114.073,59.5Zm-19.012,0a2.465,2.465,0,1,1,2.465,2.465A2.465,2.465,0,0,1,95.061,59.5Zm-19.012,0a2.465,2.465,0,1,1,2.465,2.465A2.465,2.465,0,0,1,76.048,59.5Zm-19.012,0A2.465,2.465,0,1,1,59.5,61.966,2.465,2.465,0,0,1,57.036,59.5Zm-19.012,0a2.465,2.465,0,1,1,2.465,2.465A2.465,2.465,0,0,1,38.024,59.5Zm-19.012,0a2.465,2.465,0,1,1,2.465,2.465A2.465,2.465,0,0,1,19.012,59.5ZM0,59.5a2.465,2.465,0,1,1,2.465,2.465A2.465,2.465,0,0,1,0,59.5Zm171.11-19.012a2.465,2.465,0,1,1,2.465,2.465A2.465,2.465,0,0,1,171.109,40.489Zm-19.012,0a2.465,2.465,0,1,1,2.465,2.465A2.465,2.465,0,0,1,152.1,40.489Zm-19.012,0a2.465,2.465,0,1,1,2.465,2.465A2.465,2.465,0,0,1,133.085,40.489Zm-19.012,0a2.465,2.465,0,1,1,2.465,2.465A2.465,2.465,0,0,1,114.073,40.489Zm-19.012,0a2.465,2.465,0,1,1,2.465,2.465A2.465,2.465,0,0,1,95.061,40.489Zm-19.012,0a2.465,2.465,0,1,1,2.465,2.465A2.465,2.465,0,0,1,76.048,40.489Zm-19.012,0A2.465,2.465,0,1,1,59.5,42.954,2.465,2.465,0,0,1,57.036,40.489Zm-19.012,0a2.465,2.465,0,1,1,2.465,2.465A2.465,2.465,0,0,1,38.024,40.489Zm-19.012,0a2.465,2.465,0,1,1,2.465,2.465A2.465,2.465,0,0,1,19.012,40.489ZM0,40.489a2.465,2.465,0,1,1,2.465,2.465A2.465,2.465,0,0,1,0,40.489Zm171.11-19.012a2.465,2.465,0,1,1,2.465,2.465A2.465,2.465,0,0,1,171.109,21.477Zm-19.012,0a2.465,2.465,0,1,1,2.465,2.465A2.465,2.465,0,0,1,152.1,21.477Zm-19.012,0a2.465,2.465,0,1,1,2.465,2.465A2.465,2.465,0,0,1,133.085,21.477Zm-19.012,0a2.465,2.465,0,1,1,2.465,2.465A2.465,2.465,0,0,1,114.073,21.477Zm-19.012,0a2.465,2.465,0,1,1,2.465,2.465A2.465,2.465,0,0,1,95.061,21.477Zm-19.012,0a2.465,2.465,0,1,1,2.465,2.465A2.465,2.465,0,0,1,76.048,21.477Zm-19.012,0A2.465,2.465,0,1,1,59.5,23.941,2.465,2.465,0,0,1,57.036,21.477Zm-19.012,0a2.465,2.465,0,1,1,2.465,2.465A2.465,2.465,0,0,1,38.024,21.477Zm-19.012,0a2.465,2.465,0,1,1,2.465,2.465A2.465,2.465,0,0,1,19.012,21.477ZM0,21.477a2.465,2.465,0,1,1,2.465,2.465A2.465,2.465,0,0,1,0,21.477ZM171.109,2.464a2.465,2.465,0,1,1,2.465,2.465A2.465,2.465,0,0,1,171.109,2.464Zm-19.012,0a2.465,2.465,0,1,1,2.465,2.465A2.465,2.465,0,0,1,152.1,2.464Zm-19.012,0a2.465,2.465,0,1,1,2.465,2.465A2.465,2.465,0,0,1,133.085,2.464Zm-19.012,0a2.465,2.465,0,1,1,2.465,2.465A2.465,2.465,0,0,1,114.073,2.464Zm-19.012,0a2.465,2.465,0,1,1,2.465,2.465A2.465,2.465,0,0,1,95.061,2.464Zm-19.012,0a2.465,2.465,0,1,1,2.465,2.465A2.465,2.465,0,0,1,76.048,2.464Zm-19.012,0A2.465,2.465,0,1,1,59.5,4.929,2.465,2.465,0,0,1,57.036,2.464Zm-19.012,0a2.465,2.465,0,1,1,2.465,2.465A2.465,2.465,0,0,1,38.024,2.464Zm-19.012,0a2.465,2.465,0,1,1,2.465,2.465A2.465,2.465,0,0,1,19.012,2.464ZM0,2.464A2.465,2.465,0,1,1,2.464,4.929,2.465,2.465,0,0,1,0,2.464Z" transform="translate(31.961 292)"/><path class="d" d="M171.109,173.574a2.465,2.465,0,1,1,2.465,2.465A2.465,2.465,0,0,1,171.109,173.574Zm-19.012,0a2.465,2.465,0,1,1,2.465,2.465A2.465,2.465,0,0,1,152.1,173.574Zm-19.012,0a2.465,2.465,0,1,1,2.465,2.465A2.465,2.465,0,0,1,133.085,173.574Zm-19.012,0a2.465,2.465,0,1,1,2.465,2.465A2.465,2.465,0,0,1,114.073,173.574Zm-19.012,0a2.465,2.465,0,1,1,2.465,2.465A2.465,2.465,0,0,1,95.061,173.574Zm-19.012,0a2.465,2.465,0,1,1,2.465,2.465A2.465,2.465,0,0,1,76.048,173.574Zm-19.012,0a2.465,2.465,0,1,1,2.465,2.465A2.465,2.465,0,0,1,57.036,173.574Zm-19.012,0a2.465,2.465,0,1,1,2.465,2.465A2.465,2.465,0,0,1,38.024,173.574Zm-19.012,0a2.465,2.465,0,1,1,2.465,2.465A2.465,2.465,0,0,1,19.012,173.574ZM0,173.574a2.465,2.465,0,1,1,2.465,2.465A2.465,2.465,0,0,1,0,173.574Zm171.11-19.012a2.465,2.465,0,1,1,2.465,2.465A2.465,2.465,0,0,1,171.109,154.562Zm-19.012,0a2.465,2.465,0,1,1,2.465,2.465A2.465,2.465,0,0,1,152.1,154.562Zm-19.012,0a2.465,2.465,0,1,1,2.465,2.465A2.465,2.465,0,0,1,133.085,154.562Zm-19.012,0a2.465,2.465,0,1,1,2.465,2.465A2.465,2.465,0,0,1,114.073,154.562Zm-19.012,0a2.465,2.465,0,1,1,2.465,2.465A2.465,2.465,0,0,1,95.061,154.562Zm-19.012,0a2.465,2.465,0,1,1,2.465,2.465A2.465,2.465,0,0,1,76.048,154.562Zm-19.012,0a2.465,2.465,0,1,1,2.465,2.465A2.465,2.465,0,0,1,57.036,154.562Zm-19.012,0a2.465,2.465,0,1,1,2.465,2.465A2.465,2.465,0,0,1,38.024,154.562Zm-19.012,0a2.465,2.465,0,1,1,2.465,2.465A2.465,2.465,0,0,1,19.012,154.562ZM0,154.562a2.465,2.465,0,1,1,2.465,2.465A2.465,2.465,0,0,1,0,154.562Zm171.11-19.012a2.465,2.465,0,1,1,2.465,2.465A2.465,2.465,0,0,1,171.109,135.55Zm-19.012,0a2.465,2.465,0,1,1,2.465,2.465A2.465,2.465,0,0,1,152.1,135.55Zm-19.012,0a2.465,2.465,0,1,1,2.465,2.465A2.465,2.465,0,0,1,133.085,135.55Zm-19.012,0a2.465,2.465,0,1,1,2.465,2.465A2.465,2.465,0,0,1,114.073,135.55Zm-19.012,0a2.465,2.465,0,1,1,2.465,2.465A2.465,2.465,0,0,1,95.061,135.55Zm-19.012,0a2.465,2.465,0,1,1,2.465,2.465A2.465,2.465,0,0,1,76.048,135.55Zm-19.012,0a2.465,2.465,0,1,1,2.465,2.465A2.465,2.465,0,0,1,57.036,135.55Zm-19.012,0a2.465,2.465,0,1,1,2.465,2.465A2.465,2.465,0,0,1,38.024,135.55Zm-19.012,0a2.465,2.465,0,1,1,2.465,2.465A2.465,2.465,0,0,1,19.012,135.55ZM0,135.55a2.465,2.465,0,1,1,2.465,2.465A2.465,2.465,0,0,1,0,135.55Zm171.11-19.012A2.465,2.465,0,1,1,173.574,119,2.465,2.465,0,0,1,171.109,116.538Zm-19.012,0A2.465,2.465,0,1,1,154.562,119,2.465,2.465,0,0,1,152.1,116.538Zm-19.012,0A2.465,2.465,0,1,1,135.55,119,2.465,2.465,0,0,1,133.085,116.538Zm-19.012,0A2.465,2.465,0,1,1,116.538,119,2.465,2.465,0,0,1,114.073,116.538Zm-19.012,0A2.465,2.465,0,1,1,97.525,119,2.465,2.465,0,0,1,95.061,116.538Zm-19.012,0A2.465,2.465,0,1,1,78.513,119,2.465,2.465,0,0,1,76.048,116.538Zm-19.012,0A2.465,2.465,0,1,1,59.5,119,2.465,2.465,0,0,1,57.036,116.538Zm-19.012,0A2.465,2.465,0,1,1,40.489,119,2.465,2.465,0,0,1,38.024,116.538Zm-19.012,0A2.465,2.465,0,1,1,21.477,119,2.465,2.465,0,0,1,19.012,116.538ZM0,116.538A2.465,2.465,0,1,1,2.464,119,2.465,2.465,0,0,1,0,116.538Zm171.11-19.012a2.465,2.465,0,1,1,2.465,2.465A2.465,2.465,0,0,1,171.109,97.525Zm-19.012,0a2.465,2.465,0,1,1,2.465,2.465A2.465,2.465,0,0,1,152.1,97.525Zm-19.012,0a2.465,2.465,0,1,1,2.465,2.465A2.465,2.465,0,0,1,133.085,97.525Zm-19.012,0a2.465,2.465,0,1,1,2.465,2.465A2.465,2.465,0,0,1,114.073,97.525Zm-19.012,0a2.465,2.465,0,1,1,2.465,2.465A2.465,2.465,0,0,1,95.061,97.525Zm-19.012,0a2.465,2.465,0,1,1,2.465,2.465A2.465,2.465,0,0,1,76.048,97.525Zm-19.012,0A2.465,2.465,0,1,1,59.5,99.99,2.465,2.465,0,0,1,57.036,97.525Zm-19.012,0a2.465,2.465,0,1,1,2.465,2.465A2.465,2.465,0,0,1,38.024,97.525Zm-19.012,0a2.465,2.465,0,1,1,2.465,2.465A2.465,2.465,0,0,1,19.012,97.525ZM0,97.525A2.465,2.465,0,1,1,2.464,99.99,2.465,2.465,0,0,1,0,97.525Zm171.11-19.012a2.465,2.465,0,1,1,2.465,2.465A2.465,2.465,0,0,1,171.109,78.513Zm-19.012,0a2.465,2.465,0,1,1,2.465,2.465A2.465,2.465,0,0,1,152.1,78.513Zm-19.012,0a2.465,2.465,0,1,1,2.465,2.465A2.465,2.465,0,0,1,133.085,78.513Zm-19.012,0a2.465,2.465,0,1,1,2.465,2.465A2.465,2.465,0,0,1,114.073,78.513Zm-19.012,0a2.465,2.465,0,1,1,2.465,2.465A2.465,2.465,0,0,1,95.061,78.513Zm-19.012,0a2.465,2.465,0,1,1,2.465,2.465A2.465,2.465,0,0,1,76.048,78.513Zm-19.012,0A2.465,2.465,0,1,1,59.5,80.978,2.465,2.465,0,0,1,57.036,78.513Zm-19.012,0a2.465,2.465,0,1,1,2.465,2.465A2.465,2.465,0,0,1,38.024,78.513Zm-19.012,0a2.465,2.465,0,1,1,2.465,2.465A2.465,2.465,0,0,1,19.012,78.513ZM0,78.513a2.465,2.465,0,1,1,2.465,2.465A2.465,2.465,0,0,1,0,78.513ZM171.109,59.5a2.465,2.465,0,1,1,2.465,2.465A2.465,2.465,0,0,1,171.109,59.5Zm-19.012,0a2.465,2.465,0,1,1,2.465,2.465A2.465,2.465,0,0,1,152.1,59.5Zm-19.012,0a2.465,2.465,0,1,1,2.465,2.465A2.465,2.465,0,0,1,133.085,59.5Zm-19.012,0a2.465,2.465,0,1,1,2.465,2.465A2.465,2.465,0,0,1,114.073,59.5Zm-19.012,0a2.465,2.465,0,1,1,2.465,2.465A2.465,2.465,0,0,1,95.061,59.5Zm-19.012,0a2.465,2.465,0,1,1,2.465,2.465A2.465,2.465,0,0,1,76.048,59.5Zm-19.012,0A2.465,2.465,0,1,1,59.5,61.966,2.465,2.465,0,0,1,57.036,59.5Zm-19.012,0a2.465,2.465,0,1,1,2.465,2.465A2.465,2.465,0,0,1,38.024,59.5Zm-19.012,0a2.465,2.465,0,1,1,2.465,2.465A2.465,2.465,0,0,1,19.012,59.5ZM0,59.5a2.465,2.465,0,1,1,2.465,2.465A2.465,2.465,0,0,1,0,59.5Zm171.11-19.012a2.465,2.465,0,1,1,2.465,2.465A2.465,2.465,0,0,1,171.109,40.489Zm-19.012,0a2.465,2.465,0,1,1,2.465,2.465A2.465,2.465,0,0,1,152.1,40.489Zm-19.012,0a2.465,2.465,0,1,1,2.465,2.465A2.465,2.465,0,0,1,133.085,40.489Zm-19.012,0a2.465,2.465,0,1,1,2.465,2.465A2.465,2.465,0,0,1,114.073,40.489Zm-19.012,0a2.465,2.465,0,1,1,2.465,2.465A2.465,2.465,0,0,1,95.061,40.489Zm-19.012,0a2.465,2.465,0,1,1,2.465,2.465A2.465,2.465,0,0,1,76.048,40.489Zm-19.012,0A2.465,2.465,0,1,1,59.5,42.954,2.465,2.465,0,0,1,57.036,40.489Zm-19.012,0a2.465,2.465,0,1,1,2.465,2.465A2.465,2.465,0,0,1,38.024,40.489Zm-19.012,0a2.465,2.465,0,1,1,2.465,2.465A2.465,2.465,0,0,1,19.012,40.489ZM0,40.489a2.465,2.465,0,1,1,2.465,2.465A2.465,2.465,0,0,1,0,40.489Zm171.11-19.012a2.465,2.465,0,1,1,2.465,2.465A2.465,2.465,0,0,1,171.109,21.477Zm-19.012,0a2.465,2.465,0,1,1,2.465,2.465A2.465,2.465,0,0,1,152.1,21.477Zm-19.012,0a2.465,2.465,0,1,1,2.465,2.465A2.465,2.465,0,0,1,133.085,21.477Zm-19.012,0a2.465,2.465,0,1,1,2.465,2.465A2.465,2.465,0,0,1,114.073,21.477Zm-19.012,0a2.465,2.465,0,1,1,2.465,2.465A2.465,2.465,0,0,1,95.061,21.477Zm-19.012,0a2.465,2.465,0,1,1,2.465,2.465A2.465,2.465,0,0,1,76.048,21.477Zm-19.012,0A2.465,2.465,0,1,1,59.5,23.941,2.465,2.465,0,0,1,57.036,21.477Zm-19.012,0a2.465,2.465,0,1,1,2.465,2.465A2.465,2.465,0,0,1,38.024,21.477Zm-19.012,0a2.465,2.465,0,1,1,2.465,2.465A2.465,2.465,0,0,1,19.012,21.477ZM0,21.477a2.465,2.465,0,1,1,2.465,2.465A2.465,2.465,0,0,1,0,21.477ZM171.109,2.464a2.465,2.465,0,1,1,2.465,2.465A2.465,2.465,0,0,1,171.109,2.464Zm-19.012,0a2.465,2.465,0,1,1,2.465,2.465A2.465,2.465,0,0,1,152.1,2.464Zm-19.012,0a2.465,2.465,0,1,1,2.465,2.465A2.465,2.465,0,0,1,133.085,2.464Zm-19.012,0a2.465,2.465,0,1,1,2.465,2.465A2.465,2.465,0,0,1,114.073,2.464Zm-19.012,0a2.465,2.465,0,1,1,2.465,2.465A2.465,2.465,0,0,1,95.061,2.464Zm-19.012,0a2.465,2.465,0,1,1,2.465,2.465A2.465,2.465,0,0,1,76.048,2.464Zm-19.012,0A2.465,2.465,0,1,1,59.5,4.929,2.465,2.465,0,0,1,57.036,2.464Zm-19.012,0a2.465,2.465,0,1,1,2.465,2.465A2.465,2.465,0,0,1,38.024,2.464Zm-19.012,0a2.465,2.465,0,1,1,2.465,2.465A2.465,2.465,0,0,1,19.012,2.464ZM0,2.464A2.465,2.465,0,1,1,2.464,4.929,2.465,2.465,0,0,1,0,2.464Z" transform="translate(824.961 384)"/><path class="b" d="M171.111,173.574a2.464,2.464,0,1,1,2.464,2.464A2.465,2.465,0,0,1,171.111,173.574Zm-19.012,0a2.465,2.465,0,1,1,2.464,2.464A2.465,2.465,0,0,1,152.1,173.574Zm-19.012,0a2.465,2.465,0,1,1,2.465,2.464A2.465,2.465,0,0,1,133.086,173.574Zm-19.012,0a2.464,2.464,0,1,1,2.464,2.464A2.465,2.465,0,0,1,114.074,173.574Zm-19.013,0a2.465,2.465,0,1,1,2.464,2.464A2.465,2.465,0,0,1,95.062,173.574Zm76.049-19.012a2.464,2.464,0,1,1,2.464,2.464A2.464,2.464,0,0,1,171.111,154.562Zm-19.012,0a2.465,2.465,0,1,1,2.464,2.464A2.464,2.464,0,0,1,152.1,154.562Zm-19.012,0a2.465,2.465,0,1,1,2.465,2.464A2.465,2.465,0,0,1,133.086,154.562Zm-19.012,0a2.464,2.464,0,1,1,2.464,2.464A2.464,2.464,0,0,1,114.074,154.562Zm-19.013,0a2.465,2.465,0,1,1,2.464,2.464A2.464,2.464,0,0,1,95.062,154.562Zm76.049-19.013a2.464,2.464,0,1,1,2.464,2.465A2.464,2.464,0,0,1,171.111,135.549Zm-19.012,0a2.465,2.465,0,1,1,2.464,2.465A2.464,2.464,0,0,1,152.1,135.549Zm-19.012,0a2.465,2.465,0,1,1,2.465,2.465A2.465,2.465,0,0,1,133.086,135.549Zm-19.012,0a2.464,2.464,0,1,1,2.464,2.465A2.464,2.464,0,0,1,114.074,135.549Zm-19.013,0a2.465,2.465,0,1,1,2.464,2.465A2.464,2.464,0,0,1,95.062,135.549Zm76.049-19.012A2.464,2.464,0,1,1,173.575,119,2.465,2.465,0,0,1,171.111,116.537Zm-19.012,0A2.465,2.465,0,1,1,154.562,119,2.465,2.465,0,0,1,152.1,116.537Zm-19.012,0A2.465,2.465,0,1,1,135.551,119,2.465,2.465,0,0,1,133.086,116.537Zm-19.012,0A2.464,2.464,0,1,1,116.538,119,2.465,2.465,0,0,1,114.074,116.537Zm-19.013,0A2.465,2.465,0,1,1,97.526,119,2.465,2.465,0,0,1,95.062,116.537Zm76.049-19.012a2.464,2.464,0,1,1,2.464,2.465A2.464,2.464,0,0,1,171.111,97.525Zm-19.012,0a2.465,2.465,0,1,1,2.464,2.465A2.464,2.464,0,0,1,152.1,97.525Zm-19.012,0a2.465,2.465,0,1,1,2.465,2.465A2.465,2.465,0,0,1,133.086,97.525Zm-19.012,0a2.464,2.464,0,1,1,2.464,2.465A2.464,2.464,0,0,1,114.074,97.525Zm-19.013,0a2.465,2.465,0,1,1,2.464,2.465A2.464,2.464,0,0,1,95.062,97.525Zm76.049-19.012a2.464,2.464,0,1,1,2.464,2.464A2.465,2.465,0,0,1,171.111,78.513Zm-19.012,0a2.465,2.465,0,1,1,2.464,2.464A2.465,2.465,0,0,1,152.1,78.513Zm-19.012,0a2.465,2.465,0,1,1,2.465,2.464A2.465,2.465,0,0,1,133.086,78.513Zm-19.012,0a2.464,2.464,0,1,1,2.464,2.464A2.465,2.465,0,0,1,114.074,78.513Zm-19.013,0a2.465,2.465,0,1,1,2.464,2.464A2.465,2.465,0,0,1,95.062,78.513ZM171.111,59.5a2.464,2.464,0,1,1,2.464,2.464A2.464,2.464,0,0,1,171.111,59.5Zm-19.012,0a2.465,2.465,0,1,1,2.464,2.464A2.464,2.464,0,0,1,152.1,59.5Zm-19.012,0a2.465,2.465,0,1,1,2.465,2.464A2.465,2.465,0,0,1,133.086,59.5Zm-19.012,0a2.464,2.464,0,1,1,2.464,2.464A2.464,2.464,0,0,1,114.074,59.5Zm-19.013,0a2.465,2.465,0,1,1,2.464,2.464A2.464,2.464,0,0,1,95.062,59.5Zm76.049-19.013a2.464,2.464,0,1,1,2.464,2.465A2.464,2.464,0,0,1,171.111,40.488Zm-19.012,0a2.465,2.465,0,1,1,2.464,2.465A2.464,2.464,0,0,1,152.1,40.488Zm-19.012,0a2.465,2.465,0,1,1,2.465,2.465A2.465,2.465,0,0,1,133.086,40.488Zm-19.012,0a2.464,2.464,0,1,1,2.464,2.465A2.464,2.464,0,0,1,114.074,40.488Zm-19.013,0a2.465,2.465,0,1,1,2.464,2.465A2.464,2.464,0,0,1,95.062,40.488Zm76.049-19.012a2.464,2.464,0,1,1,2.464,2.464A2.465,2.465,0,0,1,171.111,21.477Zm-19.012,0a2.465,2.465,0,1,1,2.464,2.464A2.465,2.465,0,0,1,152.1,21.477Zm-19.012,0a2.465,2.465,0,1,1,2.465,2.464A2.465,2.465,0,0,1,133.086,21.477Zm-19.012,0a2.464,2.464,0,1,1,2.464,2.464A2.465,2.465,0,0,1,114.074,21.477Zm-19.013,0a2.465,2.465,0,1,1,2.464,2.464A2.465,2.465,0,0,1,95.062,21.477ZM171.111,2.464a2.464,2.464,0,1,1,2.464,2.465A2.464,2.464,0,0,1,171.111,2.464Zm-19.012,0a2.465,2.465,0,1,1,2.464,2.465A2.464,2.464,0,0,1,152.1,2.464Zm-19.012,0a2.465,2.465,0,1,1,2.465,2.465A2.465,2.465,0,0,1,133.086,2.464Zm-19.012,0a2.464,2.464,0,1,1,2.464,2.465A2.464,2.464,0,0,1,114.074,2.464Zm-19.013,0a2.465,2.465,0,1,1,2.464,2.465A2.464,2.464,0,0,1,95.062,2.464Z" transform="translate(1688.02 376.039) rotate(180)"/></g></svg>